<svg xmlns="http://www.w3.org/2000/svg" xmlns:xlink="http://www.w3.org/1999/xlink" width="150" height="50" viewBox="0 0 150 50">
    <defs>
        <path id="prefix__a" d="M0 50L150 50 150 0 0 0z"/>
    </defs>
    <g fill="none" fill-rule="evenodd">
        <path fill="#FFFFFE" d="M30.827 25.553c-.033-3.568 2.983-5.303 3.121-5.385-1.708-2.439-4.357-2.772-5.287-2.798-2.225-.229-4.38 1.303-5.514 1.303-1.156 0-2.901-1.28-4.78-1.242-2.42.036-4.684 1.408-5.926 3.537-2.562 4.342-.651 10.724 1.803 14.235 1.227 1.719 2.663 3.639 4.54 3.57 1.838-.074 2.524-1.147 4.742-1.147 2.198 0 2.842 1.148 4.757 1.104 1.972-.03 3.214-1.726 4.4-3.461 1.418-1.971 1.987-3.912 2.01-4.01-.046-.016-3.83-1.429-3.866-5.706M27.252 14.454c.864-1.136 1.457-2.682 1.292-4.25-1.252.058-2.818.909-3.72 2.02-.797.98-1.51 2.584-1.325 4.093 1.405.11 2.85-.745 3.753-1.863M48.573 32.326h4.85l-2.39-7.162h-.068l-2.392 7.162zm5.486 2.037h-6.12l-1.47 4.413h-2.591l5.796-16.327h2.693l5.796 16.327h-2.636l-1.468-4.413zM67.103 32.356c0-2.31-1.134-3.83-2.863-3.83-1.7 0-2.842 1.552-2.842 3.83 0 2.3 1.143 3.84 2.842 3.84 1.73 0 2.863-1.509 2.863-3.84m2.285 0c0 3.546-1.802 5.825-4.521 5.825-1.543 0-2.77-.727-3.408-1.997h-.052v5.653h-2.223V26.65h2.152v1.898h.04c.62-1.225 1.937-2.017 3.45-2.017 2.75 0 4.562 2.29 4.562 5.825M79.347 32.356c0-2.31-1.133-3.83-2.863-3.83-1.699 0-2.841 1.552-2.841 3.83 0 2.3 1.142 3.84 2.841 3.84 1.73 0 2.863-1.509 2.863-3.84m2.286 0c0 3.546-1.802 5.825-4.521 5.825-1.544 0-2.77-.727-3.408-1.997h-.052v5.653H71.43V26.65h2.152v1.898h.041c.618-1.225 1.936-2.017 3.45-2.017 2.748 0 4.56 2.29 4.56 5.825M89.997 34.11c.162 1.567 1.571 2.595 3.498 2.595 1.846 0 3.174-1.028 3.174-2.441 0-1.226-.802-1.96-2.697-2.464l-1.897-.494c-2.686-.7-3.934-2.057-3.934-4.258 0-2.726 2.2-4.599 5.323-4.599 3.093 0 5.212 1.873 5.284 4.599h-2.211c-.132-1.578-1.339-2.53-3.103-2.53-1.764 0-2.971.964-2.971 2.365 0 1.118.771 1.775 2.657 2.278l1.612.428c3.002.766 4.248 2.068 4.248 4.38 0 2.955-2.18 4.807-5.648 4.807-3.244 0-5.435-1.808-5.577-4.666h2.242zM103.973 24.49v2.721h2.15v1.87h-2.15v6.339c0 .985.43 1.444 1.375 1.444.237 0 .613-.034.763-.056v1.859c-.257.066-.773.109-1.288.109-2.288 0-3.18-.874-3.18-3.105v-6.59H100v-1.87h1.643V24.49h2.33zM116.118 32.143c0-2.364-1.065-3.76-2.854-3.76-1.788 0-2.852 1.407-2.852 3.76 0 2.373 1.064 3.758 2.852 3.758 1.79 0 2.854-1.385 2.854-3.758m-7.955 0c0-3.447 1.993-5.612 5.101-5.612 3.12 0 5.103 2.165 5.103 5.612 0 3.456-1.973 5.612-5.103 5.612-3.127 0-5.1-2.156-5.1-5.612M121.429 26.647h1.953v1.89h.047c.314-1.257 1.224-2.006 2.4-2.006.294 0 .54.042.702.085v2.132c-.162-.075-.523-.138-.92-.138-1.318 0-2.134.994-2.134 2.556v6.59h-2.048v-11.11zM128.856 31.133h5.584c-.053-1.677-1.147-2.78-2.74-2.78-1.582 0-2.727 1.124-2.844 2.78zm7.75 3.27c-.308 1.987-2.283 3.352-4.81 3.352-3.249 0-5.265-2.135-5.265-5.56 0-3.436 2.027-5.664 5.17-5.664 3.09 0 5.034 2.082 5.034 5.402v.771h-7.89v.136c0 1.874 1.2 3.103 3.005 3.103 1.273 0 2.272-.594 2.58-1.54h2.176zM44.898 14.798c0-2.209 1.219-3.574 3.183-3.574 1.557 0 2.763.973 2.94 2.361h-1.093c-.207-.836-.917-1.374-1.847-1.374-1.269 0-2.062.996-2.062 2.587 0 1.586.793 2.582 2.067 2.582.936 0 1.646-.486 1.842-1.255h1.092c-.196 1.345-1.356 2.242-2.934 2.242-1.964 0-3.188-1.364-3.188-3.569M56.045 15.814c0-1.064-.527-1.687-1.452-1.687-.928 0-1.45.623-1.45 1.687 0 1.074.522 1.692 1.45 1.692.925 0 1.452-.622 1.452-1.692m-4.004 0c0-1.583.973-2.549 2.552-2.549 1.576 0 2.55.966 2.55 2.55 0 1.591-.97 2.552-2.55 2.552-1.583 0-2.552-.96-2.552-2.553M58.163 13.362h1.142v.795h.088c.292-.556.889-.892 1.793-.892 1.34 0 2.08.671 2.08 1.862v3.24h-1.187v-2.992c0-.804-.42-1.204-1.296-1.204-.876 0-1.434.488-1.434 1.268v2.928h-1.186v-5.005zM67.356 13.265c1.113 0 1.84.515 1.936 1.38h-.937c-.09-.36-.445-.59-1-.59-.544 0-.959.257-.959.64 0 .294.25.478.787.6l.823.19c.94.216 1.382.618 1.382 1.34 0 .925-.868 1.542-2.05 1.542-1.178 0-1.945-.527-2.032-1.398h.978c.122.379.486.614 1.076.614.609 0 1.041-.271 1.041-.663 0-.294-.232-.484-.728-.6l-.862-.199c-.941-.221-1.377-.64-1.377-1.371 0-.872.803-1.485 1.922-1.485"/>
        <mask id="prefix__b" fill="#fff">
            <use xlink:href="#prefix__a"/>
        </mask>
        <path fill="#FFFFFE" d="M71.518 18.367h.869v-5.504h-.869v5.504zm-.09-6.424l1.019-1.739h1.022l-1.14 1.739h-.9zM78.533 15.84c0-1.017-.562-1.669-1.48-1.669-.928 0-1.45.652-1.45 1.669 0 1.018.522 1.67 1.45 1.67.924 0 1.48-.647 1.48-1.67m-3.828 3.128h1.103c.092.37.548.61 1.275.61.899 0 1.43-.399 1.43-1.074v-.98h-.08c-.332.553-.934.858-1.686.858-1.395 0-2.257-1.008-2.257-2.537 0-1.558.872-2.58 2.268-2.58.752 0 1.408.348 1.715.9h.086v-.815h1.033v5.15c0 1.167-.98 1.908-2.524 1.908-1.365 0-2.248-.572-2.363-1.44M85.714 18.27h-1.139v-.795h-.093c-.29.57-.9.892-1.807.892-1.325 0-2.063-.675-2.063-1.852v-3.25h1.183v2.993c0 .808.39 1.195 1.258 1.195.957 0 1.479-.474 1.479-1.26v-2.928h1.182v5.006zM88.886 15.363h2.841c-.025-.771-.563-1.273-1.385-1.273-.82 0-1.394.506-1.456 1.273zm3.905 1.583c-.253.88-1.152 1.421-2.437 1.421-1.612 0-2.599-.965-2.599-2.535 0-1.57 1.008-2.567 2.593-2.567 1.565 0 2.51.934 2.51 2.477v.338h-3.972v.055c.036.86.61 1.407 1.498 1.407.671 0 1.132-.212 1.338-.596h1.069zM93.878 18.367L94.898 18.367 94.898 11.224 93.878 11.224zM100.943 15.814c0-1.064-.526-1.687-1.451-1.687-.929 0-1.45.623-1.45 1.687 0 1.074.521 1.692 1.45 1.692.925 0 1.451-.622 1.451-1.692m-4.004 0c0-1.583.973-2.549 2.553-2.549 1.575 0 2.549.966 2.549 2.55 0 1.591-.969 2.552-2.55 2.552-1.584 0-2.552-.96-2.552-2.553M107.253 15.363h2.842c-.026-.771-.562-1.273-1.385-1.273-.82 0-1.394.506-1.457 1.273zm3.905 1.583c-.253.88-1.15 1.421-2.437 1.421-1.611 0-2.599-.965-2.599-2.535 0-1.57 1.009-2.567 2.594-2.567 1.565 0 2.508.934 2.508 2.477v.338h-3.97v.055c.037.86.609 1.407 1.498 1.407.671 0 1.132-.212 1.337-.596h1.069zM113.265 13.362h1.142v.795h.088c.292-.556.888-.892 1.792-.892 1.341 0 2.08.671 2.08 1.862v3.24h-1.186v-2.992c0-.804-.419-1.204-1.296-1.204-.876 0-1.434.488-1.434 1.268v2.928h-1.186v-5.005zM123.58 15.363h2.84c-.025-.771-.561-1.273-1.384-1.273-.82 0-1.394.506-1.456 1.273zm3.905 1.583c-.253.88-1.152 1.421-2.438 1.421-1.61 0-2.598-.965-2.598-2.535 0-1.57 1.008-2.567 2.594-2.567 1.564 0 2.508.934 2.508 2.477v.338h-3.97v.055c.036.86.608 1.407 1.497 1.407.671 0 1.132-.212 1.337-.596h1.07zM128.571 18.367L129.592 18.367 129.592 11.224 128.571 11.224z" mask="url(#prefix__b)"/>
        <path fill="#FFFFFE" d="M141 0H9C4.05 0 0 4.039 0 8.975v32.05C0 45.961 4.05 50 9 50h132c4.95 0 9-4.039 9-8.975V8.975C150 4.039 145.95 0 141 0m0 .897c4.467 0 8.1 3.624 8.1 8.078v32.05c0 4.454-3.633 8.077-8.1 8.077H9c-4.466 0-8.1-3.623-8.1-8.077V8.975C.9 4.52 4.535.897 9 .897h132" mask="url(#prefix__b)"/>
    </g>
</svg>
