<svg xmlns="http://www.w3.org/2000/svg" xmlns:xlink="http://www.w3.org/1999/xlink" width="40" height="28" viewBox="0 0 40 28">
    <defs>
        <linearGradient id="prefix__b" x1="100%" x2="0%" y1="50%" y2="50%">
            <stop offset="0%" stop-color="#EF434E"/>
            <stop offset="100%" stop-color="#111E6C"/>
        </linearGradient>
        <path id="prefix__a" d="M0 0.071L39.79 0.071 39.79 26.47 0 26.47z"/>
    </defs>
    <g fill="none" fill-rule="evenodd">
        <path fill="#111E6C" d="M.238 26.046c-.372-.485-.3-1.195.16-1.586l12.74-10.811c.46-.391 1.136-.316 1.508.17.372.484.3 1.194-.161 1.586l-12.74 10.81c-.198.168-.436.25-.672.25-.313 0-.623-.143-.835-.42z"/>
        <path fill="#EF434E" d="M38.248 26.17L26.39 14.459c-.429-.424-.462-1.148-.073-1.617.388-.469 1.051-.505 1.48-.08l11.857 11.71c.43.424.463 1.148.074 1.617-.207.25-.492.376-.778.376-.251 0-.503-.097-.703-.295z"/>
        <g transform="translate(0 .332)">
            <mask id="prefix__c" fill="#fff">
                <use xlink:href="#prefix__a"/>
            </mask>
            <path fill="url(#prefix__b)" d="M19.895 15.172L2.25 5.591C2.552 3.748 4.1 2.34 5.966 2.34h31.631v3.22l-17.702 9.612zm19.895 5.28V.07H5.966C2.71.07.06 2.785.005 6.142l-.001.026c0 .026-.004.051-.004.077V26.47h38.693c.606 0 1.097-.508 1.097-1.135 0-.626-.491-1.134-1.097-1.134h-36.5V8.12l17.702 9.613 17.702-9.612v12.33h2.193z" mask="url(#prefix__c)"/>
        </g>
    </g>
</svg>
