<svg xmlns="http://www.w3.org/2000/svg" width="32" height="32" viewBox="0 0 32 32">
    <path fill="#21B859" fill-rule="evenodd" d="M23.16 18.92c-.38-.192-2.25-1.126-2.597-1.254-.348-.129-.604-.193-.855.192-.254.386-.982 1.255-1.205 1.512-.221.259-.442.29-.822.097-.381-.193-1.606-.601-3.057-1.914-1.13-1.023-1.892-2.284-2.115-2.67-.22-.386-.022-.594.166-.787.172-.174.38-.45.57-.674.191-.227.254-.388.381-.646.127-.257.064-.481-.032-.674-.095-.193-.855-2.09-1.172-2.864-.315-.77-.632-.742-.855-.742-.221 0-.632.067-.632.067s-.761.097-1.11.483c-.347.385-1.33 1.319-1.33 3.215 0 1.898 1.362 3.733 1.552 3.988.19.258 2.628 4.28 6.492 5.824 3.864 1.543 3.864 1.029 4.561.964.696-.063 2.248-.933 2.566-1.833.317-.901.317-1.674.222-1.834-.095-.16-.35-.257-.728-.45zM16.22 2.317c-7.241 0-13.13 5.89-13.13 13.13 0 2.873.928 5.534 2.5 7.7l-1.64 4.875 5.046-1.615c2.073 1.37 4.556 2.17 7.224 2.17 7.239 0 13.13-5.89 13.13-13.13 0-7.24-5.891-13.13-13.13-13.13m-.098 28.534c-2.726 0-5.288-.697-7.515-1.92L0 31.667l2.806-8.276C1.39 21.066.576 18.34.576 15.426.576 6.906 7.536 0 16.122 0c8.585 0 15.545 6.906 15.545 15.426 0 8.518-6.96 15.425-15.545 15.425z"/>
</svg>
