<svg xmlns="http://www.w3.org/2000/svg" xmlns:xlink="http://www.w3.org/1999/xlink" width="168" height="52" viewBox="0 0 168 52">
    <defs>
        <path id="53iqjvq4da" d="M0 49.959L166.065 49.959 166.065 0 0 0z"/>
        <path id="qku7dshc6c" d="M0 0.746L32 0.746 32 32.746 0 32.746z"/>
    </defs>
    <g fill="none" fill-rule="evenodd">
        <g>
            <g>
                <g transform="translate(-661 -4843) translate(662 4844)">
                    <path fill="#FFF" d="M82.97 1.14c-24.17 0-48.339 0-72.508-.002-1.244 0-2.493.014-3.709.28-3.424.747-5.502 3.445-5.566 7.368-.073 4.456-.047 8.913-.045 13.37.001 6.321-.026 12.644.047 18.966.046 3.964 2.081 6.61 5.514 7.405 1.078.25 2.186.293 3.293.292h145.947c1.107 0 2.215-.045 3.292-.293 3.426-.787 5.467-3.414 5.512-7.405.082-7.392.047-14.786.051-22.18.002-3.385.04-6.772-.046-10.155-.1-3.946-2.059-6.517-5.467-7.337-1.282-.309-2.599-.31-3.911-.31H82.97M.104 42.186V7.774c.176-.15.168-.36.194-.564C.681 4.299 2.202 2.219 4.84.931 5.772.476 6.803.415 7.77.104H158.17c.152.174.364.165.569.193 3.105.423 5.264 2.091 6.44 4.988.524 1.29.656 2.666.656 4.055-.002 9.977 0 19.955-.003 29.933 0 1.17.005 2.335-.176 3.505-.488 3.14-2.155 5.317-5.12 6.451-.758.29-1.576.421-2.366.626H7.769c-.152-.173-.361-.167-.565-.193-2.909-.384-4.986-1.907-6.275-4.545-.456-.934-.505-1.968-.825-2.932"/>
                    <path stroke="#FFF" stroke-width=".5" d="M82.97 1.14c-24.17 0-48.339 0-72.508-.002-1.244 0-2.493.014-3.709.28-3.424.747-5.502 3.445-5.566 7.368-.073 4.456-.047 8.913-.045 13.37.001 6.321-.026 12.644.047 18.966.046 3.964 2.081 6.61 5.514 7.405 1.078.25 2.186.293 3.293.292h145.947c1.107 0 2.215-.045 3.292-.293 3.426-.787 5.467-3.414 5.512-7.405.082-7.392.047-14.786.051-22.18.002-3.385.04-6.772-.046-10.155-.1-3.946-2.059-6.517-5.467-7.337-1.282-.309-2.599-.31-3.911-.31H82.97zM.104 42.185V7.774c.176-.15.168-.36.194-.564C.681 4.299 2.202 2.219 4.84.931 5.772.476 6.803.415 7.77.104H158.17c.152.174.364.165.569.193 3.105.423 5.264 2.091 6.44 4.988.524 1.29.656 2.666.656 4.055-.002 9.977 0 19.955-.003 29.933 0 1.17.005 2.335-.176 3.505-.488 3.14-2.155 5.317-5.12 6.451-.758.29-1.576.421-2.366.626H7.769c-.152-.173-.361-.167-.565-.193-2.909-.384-4.986-1.907-6.275-4.545-.456-.934-.505-1.968-.825-2.932z"/>
                    <mask id="4ryko4q7lb" fill="#fff">
                        <use xlink:href="#53iqjvq4da"/>
                    </mask>
                    <path fill="#FFF" d="M101.41 33.58v1.555c0 1.59 0 1.59-1.558 2.085-1.563.497-3.168.74-4.794.535-3.894-.491-6.119-3.357-6.018-7.441.175-7.077 6.757-8.49 11.502-6.52.988.41.03 1.027.028 1.544 0 .495-.293.612-.77.383-.652-.312-1.354-.488-2.073-.608-3.28-.546-5.644 1.204-6.017 4.506-.093.821-.051 1.644.114 2.47.778 3.899 4.142 4.076 6.745 3.373.326-.088.367-.316.393-.623.2-2.394.208-2.393-2.18-2.395-1.117 0-1.43-.458-1.15-1.571.103-.415.38-.329.63-.33 1.52-.008 3.039.02 4.556-.017.548-.014.614.223.6.672-.028.793-.008 1.588-.008 2.383" mask="url(#4ryko4q7lb)"/>
                    <path d="M101.41 33.58v1.555c0 1.59 0 1.59-1.558 2.085-1.563.497-3.168.74-4.794.535-3.894-.491-6.119-3.357-6.018-7.441.175-7.077 6.757-8.49 11.502-6.52.988.41.03 1.027.028 1.544 0 .495-.293.612-.77.383-.652-.312-1.354-.488-2.073-.608-3.28-.546-5.644 1.204-6.017 4.506-.093.821-.051 1.644.114 2.47.778 3.899 4.142 4.076 6.745 3.373.326-.088.367-.316.393-.623.2-2.394.208-2.393-2.18-2.395-1.117 0-1.43-.458-1.15-1.571.103-.415.38-.329.63-.33 1.52-.008 3.039.02 4.556-.017.548-.014.614.223.6.672-.028.793-.008 1.588-.008 2.383z" mask="url(#4ryko4q7lb)"/>
                    <path fill="#FFF" d="M58.667 26.024c-.708 1.969-1.375 3.826-2.05 5.709h4.164l-2.114-5.71m6.925 11.562c-2.565.132-2.565.132-3.44-2.19-.63-1.672-.63-1.672-2.419-1.672-1.07 0-2.14.028-3.207-.012-.493-.019-.76.13-.894.607-.13.462-.314.91-.48 1.362-.802 2.177-.803 2.177-3.284 1.85 1.28-3.275 2.552-6.535 3.828-9.794.513-1.312 1.06-2.612 1.54-3.937.182-.501.443-.78.964-.645.655.17 1.537-.497 1.957.557 1.795 4.507 3.604 9.009 5.404 13.514.035.09.019.201.03.36" mask="url(#4ryko4q7lb)"/>
                    <path d="M58.667 26.024c-.708 1.969-1.375 3.826-2.05 5.709h4.164l-2.114-5.71zm6.925 11.561c-2.565.132-2.565.132-3.44-2.19-.63-1.672-.63-1.672-2.419-1.672-1.07 0-2.14.028-3.207-.012-.493-.019-.76.13-.894.607-.13.462-.314.91-.48 1.362-.802 2.177-.803 2.177-3.284 1.85 1.28-3.275 2.552-6.535 3.828-9.794.513-1.312 1.06-2.612 1.54-3.937.182-.501.443-.78.964-.645.655.17 1.537-.497 1.957.557 1.795 4.507 3.604 9.009 5.404 13.514.035.09.019.201.03.36z" mask="url(#4ryko4q7lb)"/>
                    <path fill="#FFF" d="M69.298 32.652c0 .793.003 1.586-.002 2.379-.002.282-.017.56.324.672 1.472.489 3.261.393 3.977-1.468.507-1.316.524-2.7.103-4.053-.369-1.183-1.233-1.67-2.475-1.484-1.239.186-1.927.97-1.927 2.196v1.758m-.096-4.585c.858-.637 1.51-1.13 2.342-1.325 2.161-.508 4.18.758 4.75 3.055.277 1.114.325 2.254.138 3.392-.578 3.525-2.929 5.15-6.45 4.466-.2-.04-.405-.063-.684-.105 0 1.202-.032 2.372.014 3.538.024.61-.142.837-.785.878-1.755.113-1.749.146-1.754-1.572-.012-4.317-.018-8.633-.056-12.95-.004-.45.068-.65.539-.604.205.02.417.028.62-.001.806-.114 1.431.004 1.326 1.228" mask="url(#4ryko4q7lb)"/>
                    <path d="M69.298 32.652c0 .793.003 1.586-.002 2.379-.002.282-.017.56.324.672 1.472.489 3.261.393 3.977-1.468.507-1.316.524-2.7.103-4.053-.369-1.183-1.233-1.67-2.475-1.484-1.239.186-1.927.97-1.927 2.196v1.758zm-.096-4.585c.858-.637 1.51-1.13 2.342-1.325 2.161-.508 4.18.758 4.75 3.055.277 1.114.325 2.254.138 3.392-.578 3.525-2.929 5.15-6.45 4.466-.2-.04-.405-.063-.684-.105 0 1.202-.032 2.372.014 3.538.024.61-.142.837-.785.878-1.755.113-1.749.146-1.754-1.572-.012-4.317-.018-8.633-.056-12.95-.004-.45.068-.65.539-.604.205.02.417.028.62-.001.806-.114 1.431.004 1.326 1.228z" mask="url(#4ryko4q7lb)"/>
                    <path fill="#FFF" d="M80.519 32.623c0 .795.006 1.589-.003 2.383-.004.29.004.564.326.68 1.355.484 3.2.462 3.958-1.328.542-1.279.57-2.617.24-3.958-.316-1.288-1.214-1.88-2.534-1.707-1.24.163-1.987 1.015-1.987 2.272v1.658m-.084-4.452c.662-.61 1.171-1.011 1.786-1.25 2.107-.815 4.271.074 5.08 2.208.764 2.012.707 4.07-.199 6.032-.933 2.02-3.132 3.068-5.451 2.548-1.02-.228-1.226.05-1.145.985.071.822-.018 1.657.026 2.483.033.598-.205.748-.769.788-1.736.121-1.73.147-1.734-1.608-.01-4.105.014-8.211-.06-12.316-.017-.968.159-1.312 1.19-1.23.807.063 1.463.054 1.276 1.36" mask="url(#4ryko4q7lb)"/>
                    <path d="M80.519 32.623c0 .795.006 1.589-.003 2.383-.004.29.004.564.326.68 1.355.484 3.2.462 3.958-1.328.542-1.279.57-2.617.24-3.958-.316-1.288-1.214-1.88-2.534-1.707-1.24.163-1.987 1.015-1.987 2.272v1.658zm-.084-4.452c.662-.61 1.171-1.011 1.786-1.25 2.107-.815 4.271.074 5.08 2.208.764 2.012.707 4.07-.199 6.032-.933 2.02-3.132 3.068-5.451 2.548-1.02-.228-1.226.05-1.145.985.071.822-.018 1.657.026 2.483.033.598-.205.748-.769.788-1.736.121-1.73.147-1.734-1.608-.01-4.105.014-8.211-.06-12.316-.017-.968.159-1.312 1.19-1.23.807.063 1.463.054 1.276 1.36z" mask="url(#4ryko4q7lb)"/>
                    <path fill="#FFF" d="M155.015 26.843c-.925 2.57-1.797 5.03-2.697 7.48-.606 1.647-1.164 3.32-1.898 4.908-1.135 2.452-2.965 3.285-5.588 2.727-.375-.08-.837-.14-.55-.687.229-.44-.223-1.366.89-1.22 1.575.207 2.33-.24 3.015-1.578.273-.534.27-1.004.058-1.57-1.155-3.093-2.265-6.203-3.4-9.304-.084-.228-.201-.438-.145-.69.031-.012.06-.034.091-.036 2.428-.168 2.437-.17 3.182 2.104.622 1.896 1.219 3.8 1.875 5.854.448-1.356.864-2.611 1.276-3.867.354-1.08.745-2.15 1.041-3.246.181-.67.463-.996 1.202-.889.496.072 1.012.014 1.648.014" mask="url(#4ryko4q7lb)"/>
                    <path d="M155.015 26.843c-.925 2.57-1.797 5.03-2.697 7.48-.606 1.647-1.164 3.32-1.898 4.908-1.135 2.452-2.965 3.285-5.588 2.727-.375-.08-.837-.14-.55-.687.229-.44-.223-1.366.89-1.22 1.575.207 2.33-.24 3.015-1.578.273-.534.27-1.004.058-1.57-1.155-3.093-2.265-6.203-3.4-9.304-.084-.228-.201-.438-.145-.69.031-.012.06-.034.091-.036 2.428-.168 2.437-.17 3.182 2.104.622 1.896 1.219 3.8 1.875 5.854.448-1.356.864-2.611 1.276-3.867.354-1.08.745-2.15 1.041-3.246.181-.67.463-.996 1.202-.889.496.072 1.012.014 1.648.014z" mask="url(#4ryko4q7lb)"/>
                    <path fill="#FFF" d="M108.564 32.609c-.603.043-1.153.004-1.682.203-.897.337-1.33 1.112-1.113 2.039.183.784.887 1.205 1.843 1.064.544-.08 1.034-.328 1.532-.56 1.097-.51.87-1.499.745-2.315-.116-.756-.935-.194-1.325-.431m1.548 3.658c-1.248 1.066-2.425 1.633-3.854 1.54-1.714-.113-2.842-1.127-3.05-2.793-.215-1.733.622-3.102 2.253-3.59 1.237-.37 2.516-.419 3.79-.252.56.073.72-.09.688-.642-.07-1.172-.74-1.908-1.948-2.01-1.017-.086-1.974.206-2.933.5-.22.066-.633.5-.717-.067-.08-.54-.716-1.338.057-1.634 2.028-.776 4.145-1.1 6.226-.124 1.097.514 1.586 1.535 1.735 2.663.32 2.435.018 4.896.203 7.34.023.311-.116.438-.418.43-.31-.008-.63-.047-.93.008-.93.174-1.251-.247-1.102-1.369" mask="url(#4ryko4q7lb)"/>
                    <path d="M108.564 32.609c-.603.043-1.153.004-1.682.203-.897.337-1.33 1.112-1.113 2.039.183.784.887 1.205 1.843 1.064.544-.08 1.034-.328 1.532-.56 1.097-.51.87-1.499.745-2.315-.116-.756-.935-.194-1.325-.431zm1.548 3.658c-1.248 1.066-2.425 1.633-3.854 1.54-1.714-.113-2.842-1.127-3.05-2.793-.215-1.733.622-3.102 2.253-3.59 1.237-.37 2.516-.419 3.79-.252.56.073.72-.09.688-.642-.07-1.172-.74-1.908-1.948-2.01-1.017-.086-1.974.206-2.933.5-.22.066-.633.5-.717-.067-.08-.54-.716-1.338.057-1.634 2.028-.776 4.145-1.1 6.226-.124 1.097.514 1.586 1.535 1.735 2.663.32 2.435.018 4.896.203 7.34.023.311-.116.438-.418.43-.31-.008-.63-.047-.93.008-.93.174-1.251-.247-1.102-1.369z" mask="url(#4ryko4q7lb)"/>
                    <path fill="#FFF" d="M130.47 30.957c.514 0 1.034-.044 1.543.01.757.08.787-.32.631-.86-.244-.847-.718-1.487-1.656-1.614-.974-.133-1.749.188-2.247 1.077-.678 1.21-.577 1.387.802 1.387h.927m1.196 1.597c-.931 0-1.863.02-2.793-.008-.513-.015-.637.151-.578.668.166 1.44 1.055 2.412 2.492 2.598 1.046.135 2.065-.019 3.036-.414.509-.207.824-.085.85.446.02.44.766.995-.192 1.334-1.796.636-3.625.895-5.476.38-2.91-.81-4.247-4.621-2.836-7.956.828-1.956 2.328-2.928 4.43-2.964 3.438-.058 4.704 2.823 4.618 5.496-.016.494-.355.417-.654.418-.966.004-1.932.001-2.897.002" mask="url(#4ryko4q7lb)"/>
                    <path d="M130.47 30.957c.514 0 1.034-.044 1.543.01.757.08.787-.32.631-.86-.244-.847-.718-1.487-1.656-1.614-.974-.133-1.749.188-2.247 1.077-.678 1.21-.577 1.387.802 1.387h.927zm1.196 1.597c-.931 0-1.863.02-2.793-.008-.513-.015-.637.151-.578.668.166 1.44 1.055 2.412 2.492 2.598 1.046.135 2.065-.019 3.036-.414.509-.207.824-.085.85.446.02.44.766.995-.192 1.334-1.796.636-3.625.895-5.476.38-2.91-.81-4.247-4.621-2.836-7.956.828-1.956 2.328-2.928 4.43-2.964 3.438-.058 4.704 2.823 4.618 5.496-.016.494-.355.417-.654.418-.966.004-1.932.001-2.897.002z" mask="url(#4ryko4q7lb)"/>
                    <path fill="#FFF" d="M114.547 29.07c0-1.929.03-3.86-.015-5.788-.016-.713.113-1.03.93-1.046 1.603-.033 1.602-.09 1.602 1.508v10.44c0 .865-.023 1.658 1.277 1.6.752-.032.35.81.539 1.227.16.357-.015.522-.401.643-2.359.74-3.911-.344-3.929-2.795-.014-1.93-.003-3.859-.003-5.789" mask="url(#4ryko4q7lb)"/>
                    <path d="M114.547 29.07c0-1.929.03-3.86-.015-5.788-.016-.713.113-1.03.93-1.046 1.603-.033 1.602-.09 1.602 1.508v10.44c0 .865-.023 1.658 1.277 1.6.752-.032.35.81.539 1.227.16.357-.015.522-.401.643-2.359.74-3.911-.344-3.929-2.795-.014-1.93-.003-3.859-.003-5.789z" mask="url(#4ryko4q7lb)"/>
                    <path fill="#FFF" d="M120.674 29.143c0-2.003.015-4.007-.01-6.011-.007-.565.052-.85.753-.876 1.745-.066 1.743-.114 1.743 1.644 0 3.49.008 6.979-.006 10.468-.003.875.146 1.458 1.254 1.417.789-.03.341.808.569 1.21.16.282.024.529-.39.657-2.368.733-3.91-.356-3.913-2.808-.002-1.9 0-3.8 0-5.7" mask="url(#4ryko4q7lb)"/>
                    <path d="M120.674 29.143c0-2.003.015-4.007-.01-6.011-.007-.565.052-.85.753-.876 1.745-.066 1.743-.114 1.743 1.644 0 3.49.008 6.979-.006 10.468-.003.875.146 1.458 1.254 1.417.789-.03.341.808.569 1.21.16.282.024.529-.39.657-2.368.733-3.91-.356-3.913-2.808-.002-1.9 0-3.8 0-5.7z" mask="url(#4ryko4q7lb)"/>
                    <path fill="#FFF" d="M139.588 28.725c.89-1.194 1.684-2.124 3.11-2.105.697.01.955.143.836.95-.127.869-.2 1.379-1.332 1.35-1.449-.038-2.558 1.322-2.56 2.786 0 1.692-.029 3.385.015 5.076.017.665-.152.882-.852.868-1.674-.035-1.667.005-1.676-1.686-.015-2.76-.017-5.521-.08-8.28-.016-.657.098-.973.804-.848.134.023.28.025.413 0 1.016-.194 1.365.284 1.268 1.234-.013.128.02.26.054.655" mask="url(#4ryko4q7lb)"/>
                    <path d="M139.588 28.725c.89-1.194 1.684-2.124 3.11-2.105.697.01.955.143.836.95-.127.869-.2 1.379-1.332 1.35-1.449-.038-2.558 1.322-2.56 2.786 0 1.692-.029 3.385.015 5.076.017.665-.152.882-.852.868-1.674-.035-1.667.005-1.676-1.686-.015-2.76-.017-5.521-.08-8.28-.016-.657.098-.973.804-.848.134.023.28.025.413 0 1.016-.194 1.365.284 1.268 1.234-.013.128.02.26.054.655z" mask="url(#4ryko4q7lb)"/>
                    <path fill="#FFF" d="M125.189 14.626c0-1.668.033-3.082-.015-4.492-.022-.619.205-.718.758-.729.606-.011.745.197.736.767-.033 1.895.006 3.792-.03 5.687-.006.337.322.953-.36.982-.561.024-1.226.307-1.659-.425-.823-1.391-1.698-2.75-2.554-4.122-.086-.138-.184-.268-.52-.375 0 1.406-.028 2.814.013 4.22.018.59-.166.752-.748.75-.581-.002-.68-.238-.675-.74.02-1.895-.011-3.792.026-5.687.007-.34-.325-.966.318-1 .581-.032 1.284-.352 1.744.443.79 1.368 1.66 2.691 2.498 4.032.104.166.22.325.468.689" mask="url(#4ryko4q7lb)"/>
                    <path d="M125.189 14.626c0-1.668.033-3.082-.015-4.492-.022-.619.205-.718.758-.729.606-.011.745.197.736.767-.033 1.895.006 3.792-.03 5.687-.006.337.322.953-.36.982-.561.024-1.226.307-1.659-.425-.823-1.391-1.698-2.75-2.554-4.122-.086-.138-.184-.268-.52-.375 0 1.406-.028 2.814.013 4.22.018.59-.166.752-.748.75-.581-.002-.68-.238-.675-.74.02-1.895-.011-3.792.026-5.687.007-.34-.325-.966.318-1 .581-.032 1.284-.352 1.744.443.79 1.368 1.66 2.691 2.498 4.032.104.166.22.325.468.689z" mask="url(#4ryko4q7lb)"/>
                    <path fill="#FFF" d="M108.206 13.13c.004-1.595-.757-2.535-2.068-2.55-1.36-.017-2.224.96-2.242 2.532-.017 1.583.833 2.629 2.139 2.632 1.316.003 2.166-1.02 2.17-2.613m-2.098-3.74c2.359-.005 3.726 1.368 3.7 3.718-.025 2.346-1.486 3.814-3.807 3.826-2.315.013-3.736-1.426-3.708-3.752.03-2.367 1.457-3.786 3.815-3.792" mask="url(#4ryko4q7lb)"/>
                    <path d="M108.206 13.13c.004-1.595-.757-2.535-2.068-2.55-1.36-.017-2.224.96-2.242 2.532-.017 1.583.833 2.629 2.139 2.632 1.316.003 2.166-1.02 2.17-2.613zm-2.1-3.739c2.36-.005 3.727 1.368 3.701 3.718-.025 2.346-1.486 3.814-3.807 3.826-2.315.013-3.736-1.426-3.708-3.752.03-2.367 1.457-3.786 3.815-3.792z" mask="url(#4ryko4q7lb)"/>
                    <path fill="#FFF" d="M78.73 10.58c-1.364.013-2.18.975-2.179 2.57.001 1.612.832 2.613 2.153 2.593 1.28-.02 2.18-1.129 2.153-2.653-.027-1.582-.822-2.52-2.127-2.51m-.066-1.351c.084.05.168.148.25.146 2.455-.054 3.9 1.8 3.408 4.733-.356 2.115-2.596 3.32-4.894 2.71-1.615-.429-2.61-1.942-2.508-3.813.105-1.937 1.232-3.292 2.956-3.582.289-.049.63.104.864-.196l-.076.002" mask="url(#4ryko4q7lb)"/>
                    <path d="M78.73 10.58c-1.364.013-2.18.975-2.179 2.57.001 1.612.832 2.613 2.153 2.593 1.28-.02 2.18-1.129 2.153-2.653-.027-1.582-.822-2.52-2.127-2.51zm-.066-1.351c.084.05.168.148.25.146 2.455-.054 3.9 1.8 3.408 4.733-.356 2.115-2.596 3.32-4.894 2.71-1.615-.429-2.61-1.942-2.508-3.813.105-1.937 1.232-3.292 2.956-3.582.289-.049.63.104.864-.196l-.076.002z" mask="url(#4ryko4q7lb)"/>
                    <path fill="#FFF" d="M85.947 10.648c-1.088-.192-.686.657-.673 1.116.011.388-.44 1.124.534 1.093.803-.025 1.507-.596 1.461-1.279-.053-.793-.596-1.001-1.322-.93zm3.442 6.152c-1.098.327-1.831-.063-2.301-1.098-.212-.466-.559-.869-.812-1.319-.177-.314-.412-.437-.757-.386-.454.066-.24.424-.258.65-.035.447-.022.898-.007 1.346.015.503.069.897-.705.904-.788.008-.802-.35-.796-.932.021-1.933.03-3.868-.006-5.8-.01-.581.142-.794.738-.745.857.072 1.725.026 2.578.122.796.09 1.468.467 1.672 1.32.205.86.082 1.74-.665 2.245-.725.491-.485.836-.123 1.358.505.727 1.128 1.381 1.442 2.233v.102z" mask="url(#4ryko4q7lb)"/>
                    <path d="M85.947 10.648c-1.088-.192-.686.657-.673 1.116.011.388-.44 1.124.534 1.093.803-.025 1.507-.596 1.461-1.279-.053-.793-.596-1.001-1.322-.93zm3.442 6.152c-1.098.327-1.831-.063-2.301-1.098-.212-.466-.559-.869-.812-1.319-.177-.314-.412-.437-.757-.386-.454.066-.24.424-.258.65-.035.447-.022.898-.007 1.346.015.503.069.897-.705.904-.788.008-.802-.35-.796-.932.021-1.933.03-3.868-.006-5.8-.01-.581.142-.794.738-.745.857.072 1.725.026 2.578.122.796.09 1.468.467 1.672 1.32.205.86.082 1.74-.665 2.245-.725.491-.485.836-.123 1.358.505.727 1.128 1.381 1.442 2.233v.102z" mask="url(#4ryko4q7lb)"/>
                    <path fill="#FFF" d="M93.198 11.455c-.354.778-.88 1.452-.903 2.267h1.737l-.834-2.267m-3.81 5.346v-.103c.616-.6.715-1.447 1.023-2.19.63-1.522 1.225-3.06 1.788-4.608.153-.421.394-.539.764-.465.358.072.822-.259 1.052.335.907 2.333 1.84 4.654 2.77 6.997-1.046.252-1.85.216-2.027-1.026-.088-.62-.476-.82-1.085-.75-.442.05-.898.045-1.342 0-.467-.048-.739.13-.795.574-.175 1.37-1.048 1.492-2.147 1.236" mask="url(#4ryko4q7lb)"/>
                    <path d="M93.198 11.455c-.354.778-.88 1.452-.903 2.267h1.737l-.834-2.267zm-3.81 5.346v-.103c.616-.6.715-1.447 1.023-2.19.63-1.522 1.225-3.06 1.788-4.608.153-.421.394-.539.764-.465.358.072.822-.259 1.052.335.907 2.333 1.84 4.654 2.77 6.997-1.046.252-1.85.216-2.027-1.026-.088-.62-.476-.82-1.085-.75-.442.05-.898.045-1.342 0-.467-.048-.739.13-.795.574-.175 1.37-1.048 1.492-2.147 1.236z" mask="url(#4ryko4q7lb)"/>
                    <path fill="#FFF" d="M56.749 9.56c2.234-.773 2.175 1.348 3.088 2.201.963-.83.917-2.947 3.073-2.237-.434 1.044-1.165 1.942-1.772 2.904-.28.443-.31.74-.005 1.179.7 1.007 1.336 2.06 2.021 3.13-2.41.762-2.257-1.604-3.326-2.437-1.071.725-.845 3.139-3.274 2.46.637-.976 1.228-1.951 1.894-2.872.412-.57.475-1.017.035-1.617-.625-.852-1.146-1.779-1.734-2.71" mask="url(#4ryko4q7lb)"/>
                    <path d="M56.749 9.56c2.234-.773 2.175 1.348 3.088 2.201.963-.83.917-2.947 3.073-2.237-.434 1.044-1.165 1.942-1.772 2.904-.28.443-.31.74-.005 1.179.7 1.007 1.336 2.06 2.021 3.13-2.41.762-2.257-1.604-3.326-2.437-1.071.725-.845 3.139-3.274 2.46.637-.976 1.228-1.951 1.894-2.872.412-.57.475-1.017.035-1.617-.625-.852-1.146-1.779-1.734-2.71z" mask="url(#4ryko4q7lb)"/>
                    <path fill="#FFF" d="M114.34 13.134c0-1.001.024-2.004-.01-3.004-.017-.52.11-.74.68-.717 1.069.043 2.14.014 3.21.011.319-.001.671-.03.555.458-.076.323.086.825-.538.803-.483-.017-.977.06-1.447-.016-.852-.137-.928.275-.932.981-.003.663.213.849.828.781.409-.045.829.013 1.24-.014.46-.03.596.17.598.608.003.433-.109.645-.582.604-.376-.033-.767.046-1.136-.018-.834-.144-.912.26-.952.972-.051.906.274 1.15 1.1 1.033.372-.053.758-.021 1.137-.006.34.014.793-.167.718.517-.053.476-.115.775-.701.753-1.034-.038-2.072-.043-3.105.002-.597.026-.681-.252-.67-.744.024-1 .007-2.003.007-3.004" mask="url(#4ryko4q7lb)"/>
                    <path d="M114.34 13.134c0-1.001.024-2.004-.01-3.004-.017-.52.11-.74.68-.717 1.069.043 2.14.014 3.21.011.319-.001.671-.03.555.458-.076.323.086.825-.538.803-.483-.017-.977.06-1.447-.016-.852-.137-.928.275-.932.981-.003.663.213.849.828.781.409-.045.829.013 1.24-.014.46-.03.596.17.598.608.003.433-.109.645-.582.604-.376-.033-.767.046-1.136-.018-.834-.144-.912.26-.952.972-.051.906.274 1.15 1.1 1.033.372-.053.758-.021 1.137-.006.34.014.793-.167.718.517-.053.476-.115.775-.701.753-1.034-.038-2.072-.043-3.105.002-.597.026-.681-.252-.67-.744.024-1 .007-2.003.007-3.004z" mask="url(#4ryko4q7lb)"/>
                    <path fill="#FFF" d="M51.572 13.146c0-1.001.02-2.003-.01-3.003-.015-.502.077-.755.666-.73 1.068.046 2.138.022 3.207.009.385-.005.687-.001.608.532-.058.386-.024.776-.605.734-.446-.033-.898.02-1.344-.013-.61-.045-1-.027-.986.82.012.785.215 1.05.98.94.372-.055.759.009 1.137-.015.45-.027.596.156.593.604-.002.43-.101.643-.573.603-.377-.032-.767.044-1.136-.016-.856-.14-.976.262-.995 1.016-.02.816.223 1.097 1.021.992.44-.059.897.007 1.344-.016.414-.02.642.05.583.56-.048.416-.052.73-.611.714-1.103-.03-2.208-.027-3.311 0-.481.012-.58-.212-.573-.625.015-1.036.005-2.07.005-3.106" mask="url(#4ryko4q7lb)"/>
                    <path d="M51.572 13.146c0-1.001.02-2.003-.01-3.003-.015-.502.077-.755.666-.73 1.068.046 2.138.022 3.207.009.385-.005.687-.001.608.532-.058.386-.024.776-.605.734-.446-.033-.898.02-1.344-.013-.61-.045-1-.027-.986.82.012.785.215 1.05.98.94.372-.055.759.009 1.137-.015.45-.027.596.156.593.604-.002.43-.101.643-.573.603-.377-.032-.767.044-1.136-.016-.856-.14-.976.262-.995 1.016-.02.816.223 1.097 1.021.992.44-.059.897.007 1.344-.016.414-.02.642.05.583.56-.048.416-.052.73-.611.714-1.103-.03-2.208-.027-3.311 0-.481.012-.58-.212-.573-.625.015-1.036.005-2.07.005-3.106z" mask="url(#4ryko4q7lb)"/>
                    <path fill="#FFF" d="M66.244 10.65c-.365-.033-.874-.048-.65.582.204.577-.66 1.523.51 1.73.85.15 1.502-.408 1.474-1.165-.028-.778-.49-1.16-1.334-1.147M64 13.06c0-.998.022-1.997-.009-2.994-.015-.49.13-.683.638-.647.788.056 1.59-.013 2.367.1 1.428.205 2.098.966 2.098 2.222 0 1.288-.757 2.13-2.091 2.409-.474.098-1.135-.273-1.38.212-.21.411-.105 1.019-.037 1.526.112.836-.223 1.069-1.015 1-.463-.04-.582-.208-.576-.627.016-1.067.006-2.134.005-3.201" mask="url(#4ryko4q7lb)"/>
                    <path d="M66.244 10.65c-.365-.033-.874-.048-.65.582.204.577-.66 1.523.51 1.73.85.15 1.502-.408 1.474-1.165-.028-.778-.49-1.16-1.334-1.147zM64 13.06c0-.998.022-1.997-.009-2.994-.015-.49.13-.683.638-.647.788.056 1.59-.013 2.367.1 1.428.205 2.098.966 2.098 2.222 0 1.288-.757 2.13-2.091 2.409-.474.098-1.135-.273-1.38.212-.21.411-.105 1.019-.037 1.526.112.836-.223 1.069-1.015 1-.463-.04-.582-.208-.576-.627.016-1.067.006-2.134.005-3.201z" mask="url(#4ryko4q7lb)"/>
                    <path fill="#FFF" d="M97.64 13.072c0-.964.05-1.932-.018-2.891-.049-.692.237-.76.822-.776.644-.018.71.253.698.784-.03 1.412.04 2.826-.029 4.235-.042.853.12 1.3 1.085 1.126.367-.067.755-.014 1.134-.01.367.004.766-.1.724.54-.035.523-.1.831-.742.798-.995-.05-1.996-.043-2.993-.001-.555.023-.71-.175-.692-.706.035-1.032.01-2.066.01-3.099" mask="url(#4ryko4q7lb)"/>
                    <path d="M97.64 13.072c0-.964.05-1.932-.018-2.891-.049-.692.237-.76.822-.776.644-.018.71.253.698.784-.03 1.412.04 2.826-.029 4.235-.042.853.12 1.3 1.085 1.126.367-.067.755-.014 1.134-.01.367.004.766-.1.724.54-.035.523-.1.831-.742.798-.995-.05-1.996-.043-2.993-.001-.555.023-.71-.175-.692-.706.035-1.032.01-2.066.01-3.099z" mask="url(#4ryko4q7lb)"/>
                    <path fill="#FFF" d="M70.294 13.081c0-.997.048-1.998-.017-2.991-.045-.698.321-.667.807-.673.486-.006.736.053.718.654-.047 1.58.011 3.165-.03 4.746-.015.593.164.79.748.732.476-.048.961-.012 1.442-.01.366.003.782-.103.733.53-.037.487-.058.848-.726.811-1.028-.057-2.062-.034-3.093-.007-.453.013-.598-.152-.59-.593.022-1.066.008-2.132.008-3.199" mask="url(#4ryko4q7lb)"/>
                    <path d="M70.294 13.081c0-.997.048-1.998-.017-2.991-.045-.698.321-.667.807-.673.486-.006.736.053.718.654-.047 1.58.011 3.165-.03 4.746-.015.593.164.79.748.732.476-.048.961-.012 1.442-.01.366.003.782-.103.733.53-.037.487-.058.848-.726.811-1.028-.057-2.062-.034-3.093-.007-.453.013-.598-.152-.59-.593.022-1.066.008-2.132.008-3.199z" mask="url(#4ryko4q7lb)"/>
                    <path fill="#FFF" d="M78.664 9.229l.076-.002c-.19-.388-.66-.026-.886-.323.879-1.554.987-1.618 2.547-1.467-.381.819-1.327 1.056-1.737 1.792" mask="url(#4ryko4q7lb)"/>
                    <path d="M78.664 9.229l.076-.002c-.19-.388-.66-.026-.886-.323.879-1.554.987-1.618 2.547-1.467-.381.819-1.327 1.056-1.737 1.792z" mask="url(#4ryko4q7lb)"/>
                </g>
                <g transform="translate(-661 -4843) translate(662 4844) translate(11 8.254)">
                    <mask id="rk44vk9lkd" fill="#fff">
                        <use xlink:href="#qku7dshc6c"/>
                    </mask>
                    <path fill="#FFF" d="M27.48 20.787h.915V16.83h-.915v3.956zm-2.357-.709c.478.026.958.005 1.489.005v.664c-.748 0-1.468.044-2.179-.023-.294-.027-.63-.235-.835-.46-.65-.715-.589-1.568-.309-2.408.246-.74.858-1.018 1.59-1.048.584-.025 1.173-.006 1.795-.006v.604c-.777.419-2.04-.464-2.529 1 .75 0 1.383.025 2.014-.006.576-.032.616.237.446.754h-2.328c-.057.675.131.885.846.924zm-3.45.43c-.07.173-.54.254-.825.258-.165.002-.426-.204-.487-.373-.274-.775-.49-1.573-.779-2.524-.271.96-.474 1.756-.733 2.532-.054.16-.326.354-.489.346-.28-.014-.726-.104-.8-.285-.484-1.185-.887-2.404-1.324-3.637.64-.198 1.038-.137 1.203.573.165.716.437 1.408.8 2.133.203-.692.41-1.381.602-2.077.106-.383.158-.725.726-.723.533.002.66.271.775.681.199.715.433 1.419.652 2.125l.152.006.654-2.101c.23-.736.23-.736 1.136-.573-.413 1.222-.796 2.445-1.263 3.639zm-6.207-.36c-.038-.14-.299-.296-.47-.311-.478-.042-.963-.015-1.491-.015-.22.6-.464 1.217-1.364.842.568-1.214 1.126-2.445 1.717-3.66.196-.404 1-.416 1.192-.015.585 1.217 1.13 2.452 1.7 3.704-.622.144-1.098.165-1.284-.546zM11.93 19.6c-.019.286-.232.628-.46.82-.607.512-2.192.528-2.804.02-.24-.198-.45-.567-.468-.87-.06-.913-.023-1.834-.023-2.806h.906c0 .706-.004 1.4 0 2.093.005 1.012.207 1.266.992 1.26.765-.008.947-.24.95-1.225.005-.695.003-1.393.003-2.135h.925c0 .973.035 1.913-.02 2.843zm-4.534 1.11h-.919V19.1H4.472V20.7h-.929V16.75h.89v1.527h2.023v-1.533h.94v3.968zm3.636-14.599c.541-.108.489.294.56.627.775 3.618 4.548 5.106 7.32 2.89.906-.728 1.42-1.682 1.602-2.823.052-.323-.021-.76.528-.694.606.073.311.534.286.809-.24 2.497-2.623 4.565-5.24 4.576-2.65.01-4.964-2.002-5.32-4.641-.037-.273-.235-.646.264-.744zM32 9.476c.004-1.57-.134-3.122-.702-4.597-1.086-2.818-3.444-3.747-6.188-3.96C21.017.604 16.913.827 12.816.783c-1.91-.02-3.818-.019-5.727.11C2.923 1.178.538 3.311.283 7.442c-.38 6.194-.374 12.405-.002 18.6.242 3.993 2.535 6.253 6.532 6.465 6.176.328 12.362.309 18.537.003 3.216-.159 5.33-1.792 6.13-4.462.286-.962.482-1.952.484-2.964.007-2.775.002-5.549.002-8.324h.032c0-2.428-.007-4.855.002-7.284z" mask="url(#rk44vk9lkd)"/>
                    <path fill="#FFF" d="M15 18.746h-1l.503-1 .497 1" mask="url(#rk44vk9lkd)"/>
                </g>
            </g>
        </g>
    </g>
</svg>
