<svg xmlns="http://www.w3.org/2000/svg" width="32" height="32" viewBox="0 0 32 32">
    <defs>
        <linearGradient id="hc8t1yucca" x1="100%" x2="0%" y1="50%" y2="50%">
            <stop offset="0%" stop-color="#EF434E"/>
            <stop offset="100%" stop-color="#111E6C"/>
        </linearGradient>
    </defs>
    <g fill="none" fill-rule="evenodd">
        <g fill="url(#hc8t1yucca)" transform="translate(-1036 -5405)">
            <path d="M1052.292 5407.483c-7.285 0-13.209 5.878-13.209 13.105 0 2.867.934 5.523 2.516 7.684l-1.65 4.867 5.075-1.613c2.085 1.368 4.583 2.167 7.268 2.167 7.28 0 13.206-5.879 13.206-13.105 0-7.227-5.926-13.105-13.206-13.105m0 28.693c-2.755 0-5.344-.704-7.594-1.94L1036 5437l2.835-8.363c-1.43-2.35-2.253-5.104-2.253-8.049 0-8.609 7.033-15.588 15.71-15.588 8.675 0 15.708 6.98 15.708 15.588 0 8.608-7.033 15.588-15.708 15.588z"/>
        </g>
    </g>
</svg>
