<svg xmlns="http://www.w3.org/2000/svg" xmlns:xlink="http://www.w3.org/1999/xlink" width="168" height="50" viewBox="0 0 168 50">
    <defs>
        <path id="prefix__a" d="M0 0.107L166.727 0.107 166.727 49 0 49z"/>
        <path id="prefix__c" d="M0 50L167 50 167 1 0 1z"/>
    </defs>
    <g fill="none" fill-rule="evenodd" transform="translate(.778)">
        <g transform="translate(0 1)">
            <mask id="prefix__b" fill="#fff">
                <use xlink:href="#prefix__a"/>
            </mask>
            <path fill="#FFFFFE" d="M160.552 1.085c2.86 0 5.187 2.302 5.187 5.134v36.67c0 2.83-2.327 5.133-5.187 5.133H6.175c-2.86 0-5.187-2.302-5.187-5.133V6.219c0-2.832 2.327-5.134 5.187-5.134h154.377m0-.978H6.175C2.778.107 0 2.857 0 6.22v36.67c0 3.36 2.778 6.11 6.175 6.11h154.377c3.396 0 6.175-2.75 6.175-6.11V6.219c0-3.362-2.779-6.112-6.175-6.112" mask="url(#prefix__b)"/>
        </g>
        <path fill="#FFFFFE" d="M84.239 27.802c-2.887 0-5.238 2.206-5.238 5.245 0 3.02 2.351 5.245 5.238 5.245 2.885 0 5.237-2.224 5.237-5.245 0-3.04-2.352-5.245-5.237-5.245zm0 8.424c-1.581 0-2.947-1.312-2.947-3.179 0-1.888 1.366-3.18 2.947-3.18 1.58 0 2.944 1.292 2.944 3.18 0 1.867-1.363 3.179-2.944 3.179zm-11.425-8.424c-2.887 0-5.239 2.206-5.239 5.245 0 3.02 2.352 5.245 5.239 5.245 2.884 0 5.236-2.224 5.236-5.245 0-3.04-2.352-5.245-5.236-5.245zm0 8.424c-1.582 0-2.946-1.312-2.946-3.179 0-1.888 1.364-3.18 2.946-3.18 1.58 0 2.944 1.292 2.944 3.18 0 1.867-1.365 3.179-2.944 3.179zm-13.592-6.814v2.224h5.296c-.158 1.252-.572 2.166-1.204 2.801-.773.776-1.979 1.63-4.092 1.63-3.262 0-5.812-2.642-5.812-5.92 0-3.28 2.55-5.92 5.812-5.92 1.759 0 3.043.695 3.992 1.59l1.562-1.571C63.45 22.975 61.693 22 59.222 22 54.756 22 51 25.657 51 30.147s3.756 8.145 8.222 8.145c2.41 0 4.229-.796 5.652-2.285 1.463-1.47 1.917-3.535 1.917-5.205 0-.517-.04-.993-.119-1.39h-7.45zm55.583 1.728c-.435-1.172-1.76-3.338-4.467-3.338-2.688 0-4.92 2.125-4.92 5.245 0 2.94 2.212 5.245 5.176 5.245 2.392 0 3.776-1.47 4.349-2.324l-1.779-1.193c-.592.874-1.403 1.45-2.57 1.45-1.165 0-1.995-.536-2.53-1.589l6.977-2.9-.236-.596zm-7.116 1.748c-.059-2.026 1.561-3.06 2.727-3.06.91 0 1.68.457 1.938 1.113l-4.665 1.947zm-5.67 5.086h2.292V22.556h-2.293v15.418zm-3.757-9h-.079c-.514-.615-1.502-1.172-2.747-1.172-2.61 0-5 2.304-5 5.265 0 2.94 2.39 5.225 5 5.225 1.245 0 2.233-.557 2.747-1.193h.08v.757c0 2.006-1.068 3.079-2.788 3.079-1.403 0-2.273-1.014-2.628-1.868l-1.997.834C91.424 41.293 92.945 43 95.475 43c2.688 0 4.961-1.59 4.961-5.462V28.12h-2.174v.854zm-2.629 7.252c-1.58 0-2.904-1.331-2.904-3.159 0-1.848 1.323-3.2 2.904-3.2 1.562 0 2.786 1.352 2.786 3.2 0 1.828-1.224 3.159-2.786 3.159zm29.91-13.668h-5.484v15.416h2.287v-5.84h3.197c2.537 0 5.032-1.848 5.032-4.789s-2.495-4.787-5.032-4.787zm.06 7.43h-3.257v-5.285h3.256c1.712 0 2.683 1.425 2.683 2.642 0 1.195-.97 2.642-2.683 2.642zm14.147-2.214c-1.658 0-3.376.734-4.085 2.36l2.032.852c.434-.851 1.242-1.13 2.092-1.13 1.183 0 2.387.713 2.406 1.984v.158c-.414-.238-1.301-.595-2.387-.595-2.19 0-4.42 1.21-4.42 3.47 0 2.063 1.796 3.393 3.808 3.393 1.54 0 2.389-.694 2.922-1.508h.077v1.19h2.21v-5.91c0-2.737-2.032-4.264-4.655-4.264zm-.276 8.449c-.751 0-1.796-.376-1.796-1.31 0-1.189 1.3-1.645 2.425-1.645 1.007 0 1.482.219 2.092.515-.177 1.429-1.4 2.44-2.721 2.44zm12.981-8.112l-2.625 6.683h-.077l-2.724-6.683h-2.466l4.084 9.342-2.327 5.197h2.386L155 28.11h-2.545zm-20.618 9.863h2.289V22.558h-2.289v15.416zM51 17v-7h2.257c1.134 0 2.042.325 2.723.973.68.649 1.02 1.49 1.02 2.527 0 1.037-.34 1.88-1.02 2.527-.68.65-1.589.973-2.723.973H51zm.948-.86h1.309c.852 0 1.528-.231 2.027-.695.498-.462.746-1.11.746-1.945 0-.827-.248-1.474-.746-1.94-.499-.465-1.175-.7-2.027-.7h-1.31v5.28zM63.556 17c-.532 0-1.05-.158-1.558-.477-.509-.318-.843-.764-.998-1.34l.859-.316c.102.367.311.678.628.93.318.253.673.38 1.069.38.409 0 .76-.098 1.048-.295.29-.196.435-.464.435-.801 0-.374-.145-.662-.435-.865-.289-.202-.748-.391-1.375-.566-.648-.187-1.138-.43-1.473-.725-.333-.297-.501-.676-.501-1.138 0-.48.209-.898.625-1.253.415-.355.957-.534 1.625-.534.621 0 1.125.142 1.512.426.39.284.642.594.757.931l-.857.327c-.063-.21-.214-.408-.456-.59-.242-.18-.554-.27-.936-.27-.361 0-.67.092-.925.276-.256.184-.384.413-.384.687 0 .25.119.46.353.632.236.172.582.326 1.038.463.361.107.663.21.906.31.242.099.488.232.735.398.249.165.436.37.563.617.125.247.189.531.189.857 0 .323-.073.614-.22.87-.146.255-.341.459-.583.608-.242.15-.502.264-.782.34-.28.079-.566.118-.86.118M67.983 17H67v-7h2.607c.648 0 1.21.197 1.683.591.474.395.71.892.71 1.491 0 .6-.236 1.097-.71 1.49-.473.396-1.035.593-1.683.593h-1.624V17zm0-3.696h1.646c.413 0 .745-.126.993-.38.25-.255.373-.535.373-.842 0-.306-.123-.587-.373-.84-.248-.255-.58-.382-.993-.382h-1.646v2.444zM78.996 15.984C78.326 16.662 77.495 17 76.5 17c-.995 0-1.827-.338-2.496-1.016C73.334 15.307 73 14.48 73 13.5c0-.98.334-1.808 1.003-2.485.669-.677 1.5-1.016 2.496-1.016.99 0 1.82.34 2.493 1.02.671.68 1.008 1.507 1.008 2.48 0 .98-.335 1.807-1.004 2.484m-4.347-.56c.504.502 1.12.752 1.85.752.729 0 1.346-.25 1.85-.753.504-.502.757-1.143.757-1.922 0-.78-.253-1.422-.757-1.923-.504-.502-1.121-.754-1.85-.754-.73 0-1.346.252-1.85.754-.503.501-.756 1.144-.756 1.923 0 .78.253 1.42.756 1.922M82 17L82 10 83.014 10 86.166 15.445 86.203 15.445 86.166 14.096 86.166 10 87 10 87 17 86.13 17 82.834 11.29 82.797 11.29 82.834 12.64 82.834 17zM92 17v-7h2.642c.573 0 1.067.181 1.485.542.42.363.628.817.628 1.364 0 .333-.09.627-.27.881-.18.254-.421.446-.72.577v.038c.36.118.656.32.889.606.23.287.346.62.346.998 0 .574-.22 1.049-.658 1.427-.439.378-.958.567-1.556.567H92zm.939-3.998h1.703c.354 0 .64-.112.854-.338.213-.224.32-.47.32-.738 0-.267-.103-.512-.311-.732-.208-.222-.48-.333-.82-.333h-1.746V13zm0 3.138h1.888c.36 0 .653-.121.877-.363.225-.24.337-.504.337-.79 0-.288-.115-.55-.347-.788-.231-.238-.534-.357-.908-.357h-1.847v2.298zM98 17L98 10 98.914 10 98.914 16.14 102 16.14 102 17zM107 10.86L103.88 10.86 103.88 13.079 106.693 13.079 106.693 13.92 103.88 13.92 103.88 16.139 107 16.139 107 17 103 17 103 10 107 10zM116 10.86L112.88 10.86 112.88 13.079 115.693 13.079 115.693 13.92 112.88 13.92 112.88 16.139 116 16.139 116 17 112 17 112 10 116 10zM118 17L118 10 119.013 10 122.166 15.445 122.203 15.445 122.166 14.096 122.166 10 123 10 123 17 122.13 17 118.832 11.29 118.796 11.29 118.832 12.64 118.832 17z"/>
        <path fill="#FFFFFE" d="M51 17v-7h2.257c1.134 0 2.042.325 2.723.973.68.649 1.02 1.49 1.02 2.527 0 1.037-.34 1.88-1.02 2.527-.68.65-1.589.973-2.723.973H51zm.948-.86h1.309c.852 0 1.528-.231 2.027-.695.498-.462.746-1.11.746-1.945 0-.827-.248-1.474-.746-1.94-.499-.465-1.175-.7-2.027-.7h-1.31v5.28z"/>
        <mask id="prefix__d" fill="#fff">
            <use xlink:href="#prefix__c"/>
        </mask>
        <path fill="#FFFFFE" d="M58 17L59 17 59 10 58 10zM63.556 17c-.532 0-1.05-.158-1.558-.477-.509-.318-.843-.764-.998-1.34l.859-.316c.102.367.311.678.628.93.318.253.673.38 1.069.38.409 0 .76-.098 1.048-.295.29-.196.435-.464.435-.801 0-.374-.145-.662-.435-.865-.289-.202-.748-.391-1.375-.566-.648-.187-1.138-.43-1.473-.725-.333-.297-.501-.676-.501-1.138 0-.48.209-.898.625-1.253.415-.355.957-.534 1.625-.534.621 0 1.125.142 1.512.426.39.284.642.594.757.931l-.857.327c-.063-.21-.214-.408-.456-.59-.242-.18-.554-.27-.936-.27-.361 0-.67.092-.925.276-.256.184-.384.413-.384.687 0 .25.119.46.353.632.236.172.582.326 1.038.463.361.107.663.21.906.31.242.099.488.232.735.398.249.165.436.37.563.617.125.247.189.531.189.857 0 .323-.073.614-.22.87-.146.255-.341.459-.583.608-.242.15-.502.264-.782.34-.28.079-.566.118-.86.118M67.983 17H67v-7h2.607c.648 0 1.21.197 1.683.591.474.395.71.892.71 1.491 0 .6-.236 1.097-.71 1.49-.473.396-1.035.593-1.683.593h-1.624V17zm0-3.696h1.646c.413 0 .745-.126.993-.38.25-.255.373-.535.373-.842 0-.306-.123-.587-.373-.84-.248-.255-.58-.382-.993-.382h-1.646v2.444zM78.996 15.984C78.326 16.662 77.495 17 76.5 17c-.995 0-1.827-.338-2.496-1.016C73.334 15.307 73 14.48 73 13.5c0-.98.334-1.808 1.003-2.485.669-.677 1.5-1.016 2.496-1.016.99 0 1.82.34 2.493 1.02.671.68 1.008 1.507 1.008 2.48 0 .98-.335 1.807-1.004 2.484m-4.347-.56c.504.502 1.12.752 1.85.752.729 0 1.346-.25 1.85-.753.504-.502.757-1.143.757-1.922 0-.78-.253-1.422-.757-1.923-.504-.502-1.121-.754-1.85-.754-.73 0-1.346.252-1.85.754-.503.501-.756 1.144-.756 1.923 0 .78.253 1.42.756 1.922M82 17L82 10 83.014 10 86.166 15.445 86.203 15.445 86.166 14.096 86.166 10 87 10 87 17 86.13 17 82.834 11.29 82.797 11.29 82.834 12.64 82.834 17zM89 17L90 17 90 10 89 10zM92 17v-7h2.642c.573 0 1.067.181 1.485.542.42.363.628.817.628 1.364 0 .333-.09.627-.27.881-.18.254-.421.446-.72.577v.038c.36.118.656.32.889.606.23.287.346.62.346.998 0 .574-.22 1.049-.658 1.427-.439.378-.958.567-1.556.567H92zm.939-3.998h1.703c.354 0 .64-.112.854-.338.213-.224.32-.47.32-.738 0-.267-.103-.512-.311-.732-.208-.222-.48-.333-.82-.333h-1.746V13zm0 3.138h1.888c.36 0 .653-.121.877-.363.225-.24.337-.504.337-.79 0-.288-.115-.55-.347-.788-.231-.238-.534-.357-.908-.357h-1.847v2.298zM98 17L98 10 98.914 10 98.914 16.14 102 16.14 102 17zM107 10.86L103.88 10.86 103.88 13.079 106.693 13.079 106.693 13.92 103.88 13.92 103.88 16.139 107 16.139 107 17 103 17 103 10 107 10zM116 10.86L112.88 10.86 112.88 13.079 115.693 13.079 115.693 13.92 112.88 13.92 112.88 16.139 116 16.139 116 17 112 17 112 10 116 10zM118 17L118 10 119.013 10 122.166 15.445 122.203 15.445 122.166 14.096 122.166 10 123 10 123 17 122.13 17 118.832 11.29 118.796 11.29 118.832 12.64 118.832 17zM12.572 10.09c-.36.381-.572.972-.572 1.737v27.347c0 .767.213 1.356.572 1.736l.092.09L28 25.681v-.362L12.664 10l-.092.09zM28 24.827V25.17L33.281 30l.12-.062 6.26-3.25c1.786-.93 1.786-2.448 0-3.376l-6.26-3.25-.119-.062L28 24.827z" mask="url(#prefix__d)"/>
        <path fill="#FFFFFE" d="M12 40.506c.58.605 1.538.681 2.617.078L33 30.255 27.686 25 12 40.506zM12 9.495L27.686 25 33 19.745 14.617 9.419C14.11 9.134 13.63 9 13.206 9c-.484 0-.898.173-1.206.495" mask="url(#prefix__d)"/>
        <path stroke="#2F2A6A" d="M33 20L12 41M12 10L33 31" mask="url(#prefix__d)"/>
    </g>
</svg>
