<svg xmlns="http://www.w3.org/2000/svg" xmlns:xlink="http://www.w3.org/1999/xlink"><defs><symbol viewBox="0 0 168 52" id="app-gallery">
    <defs>
        <path id="app-gallery_53iqjvq4da" d="M0 49.959L166.065 49.959 166.065 0 0 0z" />
        <path id="app-gallery_qku7dshc6c" d="M0 0.746L32 0.746 32 32.746 0 32.746z" />
    </defs>
    <g fill="none" fill-rule="evenodd">
        <g>
            <g>
                <g transform="translate(-661 -4843) translate(662 4844)">
                    <path fill="#FFF" d="M82.97 1.14c-24.17 0-48.339 0-72.508-.002-1.244 0-2.493.014-3.709.28-3.424.747-5.502 3.445-5.566 7.368-.073 4.456-.047 8.913-.045 13.37.001 6.321-.026 12.644.047 18.966.046 3.964 2.081 6.61 5.514 7.405 1.078.25 2.186.293 3.293.292h145.947c1.107 0 2.215-.045 3.292-.293 3.426-.787 5.467-3.414 5.512-7.405.082-7.392.047-14.786.051-22.18.002-3.385.04-6.772-.046-10.155-.1-3.946-2.059-6.517-5.467-7.337-1.282-.309-2.599-.31-3.911-.31H82.97M.104 42.186V7.774c.176-.15.168-.36.194-.564C.681 4.299 2.202 2.219 4.84.931 5.772.476 6.803.415 7.77.104H158.17c.152.174.364.165.569.193 3.105.423 5.264 2.091 6.44 4.988.524 1.29.656 2.666.656 4.055-.002 9.977 0 19.955-.003 29.933 0 1.17.005 2.335-.176 3.505-.488 3.14-2.155 5.317-5.12 6.451-.758.29-1.576.421-2.366.626H7.769c-.152-.173-.361-.167-.565-.193-2.909-.384-4.986-1.907-6.275-4.545-.456-.934-.505-1.968-.825-2.932" />
                    <path stroke="#FFF" stroke-width=".5" d="M82.97 1.14c-24.17 0-48.339 0-72.508-.002-1.244 0-2.493.014-3.709.28-3.424.747-5.502 3.445-5.566 7.368-.073 4.456-.047 8.913-.045 13.37.001 6.321-.026 12.644.047 18.966.046 3.964 2.081 6.61 5.514 7.405 1.078.25 2.186.293 3.293.292h145.947c1.107 0 2.215-.045 3.292-.293 3.426-.787 5.467-3.414 5.512-7.405.082-7.392.047-14.786.051-22.18.002-3.385.04-6.772-.046-10.155-.1-3.946-2.059-6.517-5.467-7.337-1.282-.309-2.599-.31-3.911-.31H82.97zM.104 42.185V7.774c.176-.15.168-.36.194-.564C.681 4.299 2.202 2.219 4.84.931 5.772.476 6.803.415 7.77.104H158.17c.152.174.364.165.569.193 3.105.423 5.264 2.091 6.44 4.988.524 1.29.656 2.666.656 4.055-.002 9.977 0 19.955-.003 29.933 0 1.17.005 2.335-.176 3.505-.488 3.14-2.155 5.317-5.12 6.451-.758.29-1.576.421-2.366.626H7.769c-.152-.173-.361-.167-.565-.193-2.909-.384-4.986-1.907-6.275-4.545-.456-.934-.505-1.968-.825-2.932z" />
                    
                    <path fill="#FFF" d="M101.41 33.58v1.555c0 1.59 0 1.59-1.558 2.085-1.563.497-3.168.74-4.794.535-3.894-.491-6.119-3.357-6.018-7.441.175-7.077 6.757-8.49 11.502-6.52.988.41.03 1.027.028 1.544 0 .495-.293.612-.77.383-.652-.312-1.354-.488-2.073-.608-3.28-.546-5.644 1.204-6.017 4.506-.093.821-.051 1.644.114 2.47.778 3.899 4.142 4.076 6.745 3.373.326-.088.367-.316.393-.623.2-2.394.208-2.393-2.18-2.395-1.117 0-1.43-.458-1.15-1.571.103-.415.38-.329.63-.33 1.52-.008 3.039.02 4.556-.017.548-.014.614.223.6.672-.028.793-.008 1.588-.008 2.383" mask="url(#app-gallery_4ryko4q7lb)" />
                    <path d="M101.41 33.58v1.555c0 1.59 0 1.59-1.558 2.085-1.563.497-3.168.74-4.794.535-3.894-.491-6.119-3.357-6.018-7.441.175-7.077 6.757-8.49 11.502-6.52.988.41.03 1.027.028 1.544 0 .495-.293.612-.77.383-.652-.312-1.354-.488-2.073-.608-3.28-.546-5.644 1.204-6.017 4.506-.093.821-.051 1.644.114 2.47.778 3.899 4.142 4.076 6.745 3.373.326-.088.367-.316.393-.623.2-2.394.208-2.393-2.18-2.395-1.117 0-1.43-.458-1.15-1.571.103-.415.38-.329.63-.33 1.52-.008 3.039.02 4.556-.017.548-.014.614.223.6.672-.028.793-.008 1.588-.008 2.383z" mask="url(#app-gallery_4ryko4q7lb)" />
                    <path fill="#FFF" d="M58.667 26.024c-.708 1.969-1.375 3.826-2.05 5.709h4.164l-2.114-5.71m6.925 11.562c-2.565.132-2.565.132-3.44-2.19-.63-1.672-.63-1.672-2.419-1.672-1.07 0-2.14.028-3.207-.012-.493-.019-.76.13-.894.607-.13.462-.314.91-.48 1.362-.802 2.177-.803 2.177-3.284 1.85 1.28-3.275 2.552-6.535 3.828-9.794.513-1.312 1.06-2.612 1.54-3.937.182-.501.443-.78.964-.645.655.17 1.537-.497 1.957.557 1.795 4.507 3.604 9.009 5.404 13.514.035.09.019.201.03.36" mask="url(#app-gallery_4ryko4q7lb)" />
                    <path d="M58.667 26.024c-.708 1.969-1.375 3.826-2.05 5.709h4.164l-2.114-5.71zm6.925 11.561c-2.565.132-2.565.132-3.44-2.19-.63-1.672-.63-1.672-2.419-1.672-1.07 0-2.14.028-3.207-.012-.493-.019-.76.13-.894.607-.13.462-.314.91-.48 1.362-.802 2.177-.803 2.177-3.284 1.85 1.28-3.275 2.552-6.535 3.828-9.794.513-1.312 1.06-2.612 1.54-3.937.182-.501.443-.78.964-.645.655.17 1.537-.497 1.957.557 1.795 4.507 3.604 9.009 5.404 13.514.035.09.019.201.03.36z" mask="url(#app-gallery_4ryko4q7lb)" />
                    <path fill="#FFF" d="M69.298 32.652c0 .793.003 1.586-.002 2.379-.002.282-.017.56.324.672 1.472.489 3.261.393 3.977-1.468.507-1.316.524-2.7.103-4.053-.369-1.183-1.233-1.67-2.475-1.484-1.239.186-1.927.97-1.927 2.196v1.758m-.096-4.585c.858-.637 1.51-1.13 2.342-1.325 2.161-.508 4.18.758 4.75 3.055.277 1.114.325 2.254.138 3.392-.578 3.525-2.929 5.15-6.45 4.466-.2-.04-.405-.063-.684-.105 0 1.202-.032 2.372.014 3.538.024.61-.142.837-.785.878-1.755.113-1.749.146-1.754-1.572-.012-4.317-.018-8.633-.056-12.95-.004-.45.068-.65.539-.604.205.02.417.028.62-.001.806-.114 1.431.004 1.326 1.228" mask="url(#app-gallery_4ryko4q7lb)" />
                    <path d="M69.298 32.652c0 .793.003 1.586-.002 2.379-.002.282-.017.56.324.672 1.472.489 3.261.393 3.977-1.468.507-1.316.524-2.7.103-4.053-.369-1.183-1.233-1.67-2.475-1.484-1.239.186-1.927.97-1.927 2.196v1.758zm-.096-4.585c.858-.637 1.51-1.13 2.342-1.325 2.161-.508 4.18.758 4.75 3.055.277 1.114.325 2.254.138 3.392-.578 3.525-2.929 5.15-6.45 4.466-.2-.04-.405-.063-.684-.105 0 1.202-.032 2.372.014 3.538.024.61-.142.837-.785.878-1.755.113-1.749.146-1.754-1.572-.012-4.317-.018-8.633-.056-12.95-.004-.45.068-.65.539-.604.205.02.417.028.62-.001.806-.114 1.431.004 1.326 1.228z" mask="url(#app-gallery_4ryko4q7lb)" />
                    <path fill="#FFF" d="M80.519 32.623c0 .795.006 1.589-.003 2.383-.004.29.004.564.326.68 1.355.484 3.2.462 3.958-1.328.542-1.279.57-2.617.24-3.958-.316-1.288-1.214-1.88-2.534-1.707-1.24.163-1.987 1.015-1.987 2.272v1.658m-.084-4.452c.662-.61 1.171-1.011 1.786-1.25 2.107-.815 4.271.074 5.08 2.208.764 2.012.707 4.07-.199 6.032-.933 2.02-3.132 3.068-5.451 2.548-1.02-.228-1.226.05-1.145.985.071.822-.018 1.657.026 2.483.033.598-.205.748-.769.788-1.736.121-1.73.147-1.734-1.608-.01-4.105.014-8.211-.06-12.316-.017-.968.159-1.312 1.19-1.23.807.063 1.463.054 1.276 1.36" mask="url(#app-gallery_4ryko4q7lb)" />
                    <path d="M80.519 32.623c0 .795.006 1.589-.003 2.383-.004.29.004.564.326.68 1.355.484 3.2.462 3.958-1.328.542-1.279.57-2.617.24-3.958-.316-1.288-1.214-1.88-2.534-1.707-1.24.163-1.987 1.015-1.987 2.272v1.658zm-.084-4.452c.662-.61 1.171-1.011 1.786-1.25 2.107-.815 4.271.074 5.08 2.208.764 2.012.707 4.07-.199 6.032-.933 2.02-3.132 3.068-5.451 2.548-1.02-.228-1.226.05-1.145.985.071.822-.018 1.657.026 2.483.033.598-.205.748-.769.788-1.736.121-1.73.147-1.734-1.608-.01-4.105.014-8.211-.06-12.316-.017-.968.159-1.312 1.19-1.23.807.063 1.463.054 1.276 1.36z" mask="url(#app-gallery_4ryko4q7lb)" />
                    <path fill="#FFF" d="M155.015 26.843c-.925 2.57-1.797 5.03-2.697 7.48-.606 1.647-1.164 3.32-1.898 4.908-1.135 2.452-2.965 3.285-5.588 2.727-.375-.08-.837-.14-.55-.687.229-.44-.223-1.366.89-1.22 1.575.207 2.33-.24 3.015-1.578.273-.534.27-1.004.058-1.57-1.155-3.093-2.265-6.203-3.4-9.304-.084-.228-.201-.438-.145-.69.031-.012.06-.034.091-.036 2.428-.168 2.437-.17 3.182 2.104.622 1.896 1.219 3.8 1.875 5.854.448-1.356.864-2.611 1.276-3.867.354-1.08.745-2.15 1.041-3.246.181-.67.463-.996 1.202-.889.496.072 1.012.014 1.648.014" mask="url(#app-gallery_4ryko4q7lb)" />
                    <path d="M155.015 26.843c-.925 2.57-1.797 5.03-2.697 7.48-.606 1.647-1.164 3.32-1.898 4.908-1.135 2.452-2.965 3.285-5.588 2.727-.375-.08-.837-.14-.55-.687.229-.44-.223-1.366.89-1.22 1.575.207 2.33-.24 3.015-1.578.273-.534.27-1.004.058-1.57-1.155-3.093-2.265-6.203-3.4-9.304-.084-.228-.201-.438-.145-.69.031-.012.06-.034.091-.036 2.428-.168 2.437-.17 3.182 2.104.622 1.896 1.219 3.8 1.875 5.854.448-1.356.864-2.611 1.276-3.867.354-1.08.745-2.15 1.041-3.246.181-.67.463-.996 1.202-.889.496.072 1.012.014 1.648.014z" mask="url(#app-gallery_4ryko4q7lb)" />
                    <path fill="#FFF" d="M108.564 32.609c-.603.043-1.153.004-1.682.203-.897.337-1.33 1.112-1.113 2.039.183.784.887 1.205 1.843 1.064.544-.08 1.034-.328 1.532-.56 1.097-.51.87-1.499.745-2.315-.116-.756-.935-.194-1.325-.431m1.548 3.658c-1.248 1.066-2.425 1.633-3.854 1.54-1.714-.113-2.842-1.127-3.05-2.793-.215-1.733.622-3.102 2.253-3.59 1.237-.37 2.516-.419 3.79-.252.56.073.72-.09.688-.642-.07-1.172-.74-1.908-1.948-2.01-1.017-.086-1.974.206-2.933.5-.22.066-.633.5-.717-.067-.08-.54-.716-1.338.057-1.634 2.028-.776 4.145-1.1 6.226-.124 1.097.514 1.586 1.535 1.735 2.663.32 2.435.018 4.896.203 7.34.023.311-.116.438-.418.43-.31-.008-.63-.047-.93.008-.93.174-1.251-.247-1.102-1.369" mask="url(#app-gallery_4ryko4q7lb)" />
                    <path d="M108.564 32.609c-.603.043-1.153.004-1.682.203-.897.337-1.33 1.112-1.113 2.039.183.784.887 1.205 1.843 1.064.544-.08 1.034-.328 1.532-.56 1.097-.51.87-1.499.745-2.315-.116-.756-.935-.194-1.325-.431zm1.548 3.658c-1.248 1.066-2.425 1.633-3.854 1.54-1.714-.113-2.842-1.127-3.05-2.793-.215-1.733.622-3.102 2.253-3.59 1.237-.37 2.516-.419 3.79-.252.56.073.72-.09.688-.642-.07-1.172-.74-1.908-1.948-2.01-1.017-.086-1.974.206-2.933.5-.22.066-.633.5-.717-.067-.08-.54-.716-1.338.057-1.634 2.028-.776 4.145-1.1 6.226-.124 1.097.514 1.586 1.535 1.735 2.663.32 2.435.018 4.896.203 7.34.023.311-.116.438-.418.43-.31-.008-.63-.047-.93.008-.93.174-1.251-.247-1.102-1.369z" mask="url(#app-gallery_4ryko4q7lb)" />
                    <path fill="#FFF" d="M130.47 30.957c.514 0 1.034-.044 1.543.01.757.08.787-.32.631-.86-.244-.847-.718-1.487-1.656-1.614-.974-.133-1.749.188-2.247 1.077-.678 1.21-.577 1.387.802 1.387h.927m1.196 1.597c-.931 0-1.863.02-2.793-.008-.513-.015-.637.151-.578.668.166 1.44 1.055 2.412 2.492 2.598 1.046.135 2.065-.019 3.036-.414.509-.207.824-.085.85.446.02.44.766.995-.192 1.334-1.796.636-3.625.895-5.476.38-2.91-.81-4.247-4.621-2.836-7.956.828-1.956 2.328-2.928 4.43-2.964 3.438-.058 4.704 2.823 4.618 5.496-.016.494-.355.417-.654.418-.966.004-1.932.001-2.897.002" mask="url(#app-gallery_4ryko4q7lb)" />
                    <path d="M130.47 30.957c.514 0 1.034-.044 1.543.01.757.08.787-.32.631-.86-.244-.847-.718-1.487-1.656-1.614-.974-.133-1.749.188-2.247 1.077-.678 1.21-.577 1.387.802 1.387h.927zm1.196 1.597c-.931 0-1.863.02-2.793-.008-.513-.015-.637.151-.578.668.166 1.44 1.055 2.412 2.492 2.598 1.046.135 2.065-.019 3.036-.414.509-.207.824-.085.85.446.02.44.766.995-.192 1.334-1.796.636-3.625.895-5.476.38-2.91-.81-4.247-4.621-2.836-7.956.828-1.956 2.328-2.928 4.43-2.964 3.438-.058 4.704 2.823 4.618 5.496-.016.494-.355.417-.654.418-.966.004-1.932.001-2.897.002z" mask="url(#app-gallery_4ryko4q7lb)" />
                    <path fill="#FFF" d="M114.547 29.07c0-1.929.03-3.86-.015-5.788-.016-.713.113-1.03.93-1.046 1.603-.033 1.602-.09 1.602 1.508v10.44c0 .865-.023 1.658 1.277 1.6.752-.032.35.81.539 1.227.16.357-.015.522-.401.643-2.359.74-3.911-.344-3.929-2.795-.014-1.93-.003-3.859-.003-5.789" mask="url(#app-gallery_4ryko4q7lb)" />
                    <path d="M114.547 29.07c0-1.929.03-3.86-.015-5.788-.016-.713.113-1.03.93-1.046 1.603-.033 1.602-.09 1.602 1.508v10.44c0 .865-.023 1.658 1.277 1.6.752-.032.35.81.539 1.227.16.357-.015.522-.401.643-2.359.74-3.911-.344-3.929-2.795-.014-1.93-.003-3.859-.003-5.789z" mask="url(#app-gallery_4ryko4q7lb)" />
                    <path fill="#FFF" d="M120.674 29.143c0-2.003.015-4.007-.01-6.011-.007-.565.052-.85.753-.876 1.745-.066 1.743-.114 1.743 1.644 0 3.49.008 6.979-.006 10.468-.003.875.146 1.458 1.254 1.417.789-.03.341.808.569 1.21.16.282.024.529-.39.657-2.368.733-3.91-.356-3.913-2.808-.002-1.9 0-3.8 0-5.7" mask="url(#app-gallery_4ryko4q7lb)" />
                    <path d="M120.674 29.143c0-2.003.015-4.007-.01-6.011-.007-.565.052-.85.753-.876 1.745-.066 1.743-.114 1.743 1.644 0 3.49.008 6.979-.006 10.468-.003.875.146 1.458 1.254 1.417.789-.03.341.808.569 1.21.16.282.024.529-.39.657-2.368.733-3.91-.356-3.913-2.808-.002-1.9 0-3.8 0-5.7z" mask="url(#app-gallery_4ryko4q7lb)" />
                    <path fill="#FFF" d="M139.588 28.725c.89-1.194 1.684-2.124 3.11-2.105.697.01.955.143.836.95-.127.869-.2 1.379-1.332 1.35-1.449-.038-2.558 1.322-2.56 2.786 0 1.692-.029 3.385.015 5.076.017.665-.152.882-.852.868-1.674-.035-1.667.005-1.676-1.686-.015-2.76-.017-5.521-.08-8.28-.016-.657.098-.973.804-.848.134.023.28.025.413 0 1.016-.194 1.365.284 1.268 1.234-.013.128.02.26.054.655" mask="url(#app-gallery_4ryko4q7lb)" />
                    <path d="M139.588 28.725c.89-1.194 1.684-2.124 3.11-2.105.697.01.955.143.836.95-.127.869-.2 1.379-1.332 1.35-1.449-.038-2.558 1.322-2.56 2.786 0 1.692-.029 3.385.015 5.076.017.665-.152.882-.852.868-1.674-.035-1.667.005-1.676-1.686-.015-2.76-.017-5.521-.08-8.28-.016-.657.098-.973.804-.848.134.023.28.025.413 0 1.016-.194 1.365.284 1.268 1.234-.013.128.02.26.054.655z" mask="url(#app-gallery_4ryko4q7lb)" />
                    <path fill="#FFF" d="M125.189 14.626c0-1.668.033-3.082-.015-4.492-.022-.619.205-.718.758-.729.606-.011.745.197.736.767-.033 1.895.006 3.792-.03 5.687-.006.337.322.953-.36.982-.561.024-1.226.307-1.659-.425-.823-1.391-1.698-2.75-2.554-4.122-.086-.138-.184-.268-.52-.375 0 1.406-.028 2.814.013 4.22.018.59-.166.752-.748.75-.581-.002-.68-.238-.675-.74.02-1.895-.011-3.792.026-5.687.007-.34-.325-.966.318-1 .581-.032 1.284-.352 1.744.443.79 1.368 1.66 2.691 2.498 4.032.104.166.22.325.468.689" mask="url(#app-gallery_4ryko4q7lb)" />
                    <path d="M125.189 14.626c0-1.668.033-3.082-.015-4.492-.022-.619.205-.718.758-.729.606-.011.745.197.736.767-.033 1.895.006 3.792-.03 5.687-.006.337.322.953-.36.982-.561.024-1.226.307-1.659-.425-.823-1.391-1.698-2.75-2.554-4.122-.086-.138-.184-.268-.52-.375 0 1.406-.028 2.814.013 4.22.018.59-.166.752-.748.75-.581-.002-.68-.238-.675-.74.02-1.895-.011-3.792.026-5.687.007-.34-.325-.966.318-1 .581-.032 1.284-.352 1.744.443.79 1.368 1.66 2.691 2.498 4.032.104.166.22.325.468.689z" mask="url(#app-gallery_4ryko4q7lb)" />
                    <path fill="#FFF" d="M108.206 13.13c.004-1.595-.757-2.535-2.068-2.55-1.36-.017-2.224.96-2.242 2.532-.017 1.583.833 2.629 2.139 2.632 1.316.003 2.166-1.02 2.17-2.613m-2.098-3.74c2.359-.005 3.726 1.368 3.7 3.718-.025 2.346-1.486 3.814-3.807 3.826-2.315.013-3.736-1.426-3.708-3.752.03-2.367 1.457-3.786 3.815-3.792" mask="url(#app-gallery_4ryko4q7lb)" />
                    <path d="M108.206 13.13c.004-1.595-.757-2.535-2.068-2.55-1.36-.017-2.224.96-2.242 2.532-.017 1.583.833 2.629 2.139 2.632 1.316.003 2.166-1.02 2.17-2.613zm-2.1-3.739c2.36-.005 3.727 1.368 3.701 3.718-.025 2.346-1.486 3.814-3.807 3.826-2.315.013-3.736-1.426-3.708-3.752.03-2.367 1.457-3.786 3.815-3.792z" mask="url(#app-gallery_4ryko4q7lb)" />
                    <path fill="#FFF" d="M78.73 10.58c-1.364.013-2.18.975-2.179 2.57.001 1.612.832 2.613 2.153 2.593 1.28-.02 2.18-1.129 2.153-2.653-.027-1.582-.822-2.52-2.127-2.51m-.066-1.351c.084.05.168.148.25.146 2.455-.054 3.9 1.8 3.408 4.733-.356 2.115-2.596 3.32-4.894 2.71-1.615-.429-2.61-1.942-2.508-3.813.105-1.937 1.232-3.292 2.956-3.582.289-.049.63.104.864-.196l-.076.002" mask="url(#app-gallery_4ryko4q7lb)" />
                    <path d="M78.73 10.58c-1.364.013-2.18.975-2.179 2.57.001 1.612.832 2.613 2.153 2.593 1.28-.02 2.18-1.129 2.153-2.653-.027-1.582-.822-2.52-2.127-2.51zm-.066-1.351c.084.05.168.148.25.146 2.455-.054 3.9 1.8 3.408 4.733-.356 2.115-2.596 3.32-4.894 2.71-1.615-.429-2.61-1.942-2.508-3.813.105-1.937 1.232-3.292 2.956-3.582.289-.049.63.104.864-.196l-.076.002z" mask="url(#app-gallery_4ryko4q7lb)" />
                    <path fill="#FFF" d="M85.947 10.648c-1.088-.192-.686.657-.673 1.116.011.388-.44 1.124.534 1.093.803-.025 1.507-.596 1.461-1.279-.053-.793-.596-1.001-1.322-.93zm3.442 6.152c-1.098.327-1.831-.063-2.301-1.098-.212-.466-.559-.869-.812-1.319-.177-.314-.412-.437-.757-.386-.454.066-.24.424-.258.65-.035.447-.022.898-.007 1.346.015.503.069.897-.705.904-.788.008-.802-.35-.796-.932.021-1.933.03-3.868-.006-5.8-.01-.581.142-.794.738-.745.857.072 1.725.026 2.578.122.796.09 1.468.467 1.672 1.32.205.86.082 1.74-.665 2.245-.725.491-.485.836-.123 1.358.505.727 1.128 1.381 1.442 2.233v.102z" mask="url(#app-gallery_4ryko4q7lb)" />
                    <path d="M85.947 10.648c-1.088-.192-.686.657-.673 1.116.011.388-.44 1.124.534 1.093.803-.025 1.507-.596 1.461-1.279-.053-.793-.596-1.001-1.322-.93zm3.442 6.152c-1.098.327-1.831-.063-2.301-1.098-.212-.466-.559-.869-.812-1.319-.177-.314-.412-.437-.757-.386-.454.066-.24.424-.258.65-.035.447-.022.898-.007 1.346.015.503.069.897-.705.904-.788.008-.802-.35-.796-.932.021-1.933.03-3.868-.006-5.8-.01-.581.142-.794.738-.745.857.072 1.725.026 2.578.122.796.09 1.468.467 1.672 1.32.205.86.082 1.74-.665 2.245-.725.491-.485.836-.123 1.358.505.727 1.128 1.381 1.442 2.233v.102z" mask="url(#app-gallery_4ryko4q7lb)" />
                    <path fill="#FFF" d="M93.198 11.455c-.354.778-.88 1.452-.903 2.267h1.737l-.834-2.267m-3.81 5.346v-.103c.616-.6.715-1.447 1.023-2.19.63-1.522 1.225-3.06 1.788-4.608.153-.421.394-.539.764-.465.358.072.822-.259 1.052.335.907 2.333 1.84 4.654 2.77 6.997-1.046.252-1.85.216-2.027-1.026-.088-.62-.476-.82-1.085-.75-.442.05-.898.045-1.342 0-.467-.048-.739.13-.795.574-.175 1.37-1.048 1.492-2.147 1.236" mask="url(#app-gallery_4ryko4q7lb)" />
                    <path d="M93.198 11.455c-.354.778-.88 1.452-.903 2.267h1.737l-.834-2.267zm-3.81 5.346v-.103c.616-.6.715-1.447 1.023-2.19.63-1.522 1.225-3.06 1.788-4.608.153-.421.394-.539.764-.465.358.072.822-.259 1.052.335.907 2.333 1.84 4.654 2.77 6.997-1.046.252-1.85.216-2.027-1.026-.088-.62-.476-.82-1.085-.75-.442.05-.898.045-1.342 0-.467-.048-.739.13-.795.574-.175 1.37-1.048 1.492-2.147 1.236z" mask="url(#app-gallery_4ryko4q7lb)" />
                    <path fill="#FFF" d="M56.749 9.56c2.234-.773 2.175 1.348 3.088 2.201.963-.83.917-2.947 3.073-2.237-.434 1.044-1.165 1.942-1.772 2.904-.28.443-.31.74-.005 1.179.7 1.007 1.336 2.06 2.021 3.13-2.41.762-2.257-1.604-3.326-2.437-1.071.725-.845 3.139-3.274 2.46.637-.976 1.228-1.951 1.894-2.872.412-.57.475-1.017.035-1.617-.625-.852-1.146-1.779-1.734-2.71" mask="url(#app-gallery_4ryko4q7lb)" />
                    <path d="M56.749 9.56c2.234-.773 2.175 1.348 3.088 2.201.963-.83.917-2.947 3.073-2.237-.434 1.044-1.165 1.942-1.772 2.904-.28.443-.31.74-.005 1.179.7 1.007 1.336 2.06 2.021 3.13-2.41.762-2.257-1.604-3.326-2.437-1.071.725-.845 3.139-3.274 2.46.637-.976 1.228-1.951 1.894-2.872.412-.57.475-1.017.035-1.617-.625-.852-1.146-1.779-1.734-2.71z" mask="url(#app-gallery_4ryko4q7lb)" />
                    <path fill="#FFF" d="M114.34 13.134c0-1.001.024-2.004-.01-3.004-.017-.52.11-.74.68-.717 1.069.043 2.14.014 3.21.011.319-.001.671-.03.555.458-.076.323.086.825-.538.803-.483-.017-.977.06-1.447-.016-.852-.137-.928.275-.932.981-.003.663.213.849.828.781.409-.045.829.013 1.24-.014.46-.03.596.17.598.608.003.433-.109.645-.582.604-.376-.033-.767.046-1.136-.018-.834-.144-.912.26-.952.972-.051.906.274 1.15 1.1 1.033.372-.053.758-.021 1.137-.006.34.014.793-.167.718.517-.053.476-.115.775-.701.753-1.034-.038-2.072-.043-3.105.002-.597.026-.681-.252-.67-.744.024-1 .007-2.003.007-3.004" mask="url(#app-gallery_4ryko4q7lb)" />
                    <path d="M114.34 13.134c0-1.001.024-2.004-.01-3.004-.017-.52.11-.74.68-.717 1.069.043 2.14.014 3.21.011.319-.001.671-.03.555.458-.076.323.086.825-.538.803-.483-.017-.977.06-1.447-.016-.852-.137-.928.275-.932.981-.003.663.213.849.828.781.409-.045.829.013 1.24-.014.46-.03.596.17.598.608.003.433-.109.645-.582.604-.376-.033-.767.046-1.136-.018-.834-.144-.912.26-.952.972-.051.906.274 1.15 1.1 1.033.372-.053.758-.021 1.137-.006.34.014.793-.167.718.517-.053.476-.115.775-.701.753-1.034-.038-2.072-.043-3.105.002-.597.026-.681-.252-.67-.744.024-1 .007-2.003.007-3.004z" mask="url(#app-gallery_4ryko4q7lb)" />
                    <path fill="#FFF" d="M51.572 13.146c0-1.001.02-2.003-.01-3.003-.015-.502.077-.755.666-.73 1.068.046 2.138.022 3.207.009.385-.005.687-.001.608.532-.058.386-.024.776-.605.734-.446-.033-.898.02-1.344-.013-.61-.045-1-.027-.986.82.012.785.215 1.05.98.94.372-.055.759.009 1.137-.015.45-.027.596.156.593.604-.002.43-.101.643-.573.603-.377-.032-.767.044-1.136-.016-.856-.14-.976.262-.995 1.016-.02.816.223 1.097 1.021.992.44-.059.897.007 1.344-.016.414-.02.642.05.583.56-.048.416-.052.73-.611.714-1.103-.03-2.208-.027-3.311 0-.481.012-.58-.212-.573-.625.015-1.036.005-2.07.005-3.106" mask="url(#app-gallery_4ryko4q7lb)" />
                    <path d="M51.572 13.146c0-1.001.02-2.003-.01-3.003-.015-.502.077-.755.666-.73 1.068.046 2.138.022 3.207.009.385-.005.687-.001.608.532-.058.386-.024.776-.605.734-.446-.033-.898.02-1.344-.013-.61-.045-1-.027-.986.82.012.785.215 1.05.98.94.372-.055.759.009 1.137-.015.45-.027.596.156.593.604-.002.43-.101.643-.573.603-.377-.032-.767.044-1.136-.016-.856-.14-.976.262-.995 1.016-.02.816.223 1.097 1.021.992.44-.059.897.007 1.344-.016.414-.02.642.05.583.56-.048.416-.052.73-.611.714-1.103-.03-2.208-.027-3.311 0-.481.012-.58-.212-.573-.625.015-1.036.005-2.07.005-3.106z" mask="url(#app-gallery_4ryko4q7lb)" />
                    <path fill="#FFF" d="M66.244 10.65c-.365-.033-.874-.048-.65.582.204.577-.66 1.523.51 1.73.85.15 1.502-.408 1.474-1.165-.028-.778-.49-1.16-1.334-1.147M64 13.06c0-.998.022-1.997-.009-2.994-.015-.49.13-.683.638-.647.788.056 1.59-.013 2.367.1 1.428.205 2.098.966 2.098 2.222 0 1.288-.757 2.13-2.091 2.409-.474.098-1.135-.273-1.38.212-.21.411-.105 1.019-.037 1.526.112.836-.223 1.069-1.015 1-.463-.04-.582-.208-.576-.627.016-1.067.006-2.134.005-3.201" mask="url(#app-gallery_4ryko4q7lb)" />
                    <path d="M66.244 10.65c-.365-.033-.874-.048-.65.582.204.577-.66 1.523.51 1.73.85.15 1.502-.408 1.474-1.165-.028-.778-.49-1.16-1.334-1.147zM64 13.06c0-.998.022-1.997-.009-2.994-.015-.49.13-.683.638-.647.788.056 1.59-.013 2.367.1 1.428.205 2.098.966 2.098 2.222 0 1.288-.757 2.13-2.091 2.409-.474.098-1.135-.273-1.38.212-.21.411-.105 1.019-.037 1.526.112.836-.223 1.069-1.015 1-.463-.04-.582-.208-.576-.627.016-1.067.006-2.134.005-3.201z" mask="url(#app-gallery_4ryko4q7lb)" />
                    <path fill="#FFF" d="M97.64 13.072c0-.964.05-1.932-.018-2.891-.049-.692.237-.76.822-.776.644-.018.71.253.698.784-.03 1.412.04 2.826-.029 4.235-.042.853.12 1.3 1.085 1.126.367-.067.755-.014 1.134-.01.367.004.766-.1.724.54-.035.523-.1.831-.742.798-.995-.05-1.996-.043-2.993-.001-.555.023-.71-.175-.692-.706.035-1.032.01-2.066.01-3.099" mask="url(#app-gallery_4ryko4q7lb)" />
                    <path d="M97.64 13.072c0-.964.05-1.932-.018-2.891-.049-.692.237-.76.822-.776.644-.018.71.253.698.784-.03 1.412.04 2.826-.029 4.235-.042.853.12 1.3 1.085 1.126.367-.067.755-.014 1.134-.01.367.004.766-.1.724.54-.035.523-.1.831-.742.798-.995-.05-1.996-.043-2.993-.001-.555.023-.71-.175-.692-.706.035-1.032.01-2.066.01-3.099z" mask="url(#app-gallery_4ryko4q7lb)" />
                    <path fill="#FFF" d="M70.294 13.081c0-.997.048-1.998-.017-2.991-.045-.698.321-.667.807-.673.486-.006.736.053.718.654-.047 1.58.011 3.165-.03 4.746-.015.593.164.79.748.732.476-.048.961-.012 1.442-.01.366.003.782-.103.733.53-.037.487-.058.848-.726.811-1.028-.057-2.062-.034-3.093-.007-.453.013-.598-.152-.59-.593.022-1.066.008-2.132.008-3.199" mask="url(#app-gallery_4ryko4q7lb)" />
                    <path d="M70.294 13.081c0-.997.048-1.998-.017-2.991-.045-.698.321-.667.807-.673.486-.006.736.053.718.654-.047 1.58.011 3.165-.03 4.746-.015.593.164.79.748.732.476-.048.961-.012 1.442-.01.366.003.782-.103.733.53-.037.487-.058.848-.726.811-1.028-.057-2.062-.034-3.093-.007-.453.013-.598-.152-.59-.593.022-1.066.008-2.132.008-3.199z" mask="url(#app-gallery_4ryko4q7lb)" />
                    <path fill="#FFF" d="M78.664 9.229l.076-.002c-.19-.388-.66-.026-.886-.323.879-1.554.987-1.618 2.547-1.467-.381.819-1.327 1.056-1.737 1.792" mask="url(#app-gallery_4ryko4q7lb)" />
                    <path d="M78.664 9.229l.076-.002c-.19-.388-.66-.026-.886-.323.879-1.554.987-1.618 2.547-1.467-.381.819-1.327 1.056-1.737 1.792z" mask="url(#app-gallery_4ryko4q7lb)" />
                </g>
                <g transform="translate(-661 -4843) translate(662 4844) translate(11 8.254)">
                    
                    <path fill="#FFF" d="M27.48 20.787h.915V16.83h-.915v3.956zm-2.357-.709c.478.026.958.005 1.489.005v.664c-.748 0-1.468.044-2.179-.023-.294-.027-.63-.235-.835-.46-.65-.715-.589-1.568-.309-2.408.246-.74.858-1.018 1.59-1.048.584-.025 1.173-.006 1.795-.006v.604c-.777.419-2.04-.464-2.529 1 .75 0 1.383.025 2.014-.006.576-.032.616.237.446.754h-2.328c-.057.675.131.885.846.924zm-3.45.43c-.07.173-.54.254-.825.258-.165.002-.426-.204-.487-.373-.274-.775-.49-1.573-.779-2.524-.271.96-.474 1.756-.733 2.532-.054.16-.326.354-.489.346-.28-.014-.726-.104-.8-.285-.484-1.185-.887-2.404-1.324-3.637.64-.198 1.038-.137 1.203.573.165.716.437 1.408.8 2.133.203-.692.41-1.381.602-2.077.106-.383.158-.725.726-.723.533.002.66.271.775.681.199.715.433 1.419.652 2.125l.152.006.654-2.101c.23-.736.23-.736 1.136-.573-.413 1.222-.796 2.445-1.263 3.639zm-6.207-.36c-.038-.14-.299-.296-.47-.311-.478-.042-.963-.015-1.491-.015-.22.6-.464 1.217-1.364.842.568-1.214 1.126-2.445 1.717-3.66.196-.404 1-.416 1.192-.015.585 1.217 1.13 2.452 1.7 3.704-.622.144-1.098.165-1.284-.546zM11.93 19.6c-.019.286-.232.628-.46.82-.607.512-2.192.528-2.804.02-.24-.198-.45-.567-.468-.87-.06-.913-.023-1.834-.023-2.806h.906c0 .706-.004 1.4 0 2.093.005 1.012.207 1.266.992 1.26.765-.008.947-.24.95-1.225.005-.695.003-1.393.003-2.135h.925c0 .973.035 1.913-.02 2.843zm-4.534 1.11h-.919V19.1H4.472V20.7h-.929V16.75h.89v1.527h2.023v-1.533h.94v3.968zm3.636-14.599c.541-.108.489.294.56.627.775 3.618 4.548 5.106 7.32 2.89.906-.728 1.42-1.682 1.602-2.823.052-.323-.021-.76.528-.694.606.073.311.534.286.809-.24 2.497-2.623 4.565-5.24 4.576-2.65.01-4.964-2.002-5.32-4.641-.037-.273-.235-.646.264-.744zM32 9.476c.004-1.57-.134-3.122-.702-4.597-1.086-2.818-3.444-3.747-6.188-3.96C21.017.604 16.913.827 12.816.783c-1.91-.02-3.818-.019-5.727.11C2.923 1.178.538 3.311.283 7.442c-.38 6.194-.374 12.405-.002 18.6.242 3.993 2.535 6.253 6.532 6.465 6.176.328 12.362.309 18.537.003 3.216-.159 5.33-1.792 6.13-4.462.286-.962.482-1.952.484-2.964.007-2.775.002-5.549.002-8.324h.032c0-2.428-.007-4.855.002-7.284z" mask="url(#app-gallery_rk44vk9lkd)" />
                    <path fill="#FFF" d="M15 18.746h-1l.503-1 .497 1" mask="url(#app-gallery_rk44vk9lkd)" />
                </g>
            </g>
        </g>
    </g>
</symbol><mask id="app-gallery_4ryko4q7lb" fill="#fff">
                        <use xlink:href="#app-gallery_53iqjvq4da" />
                    </mask><mask id="app-gallery_rk44vk9lkd" fill="#fff">
                        <use xlink:href="#app-gallery_qku7dshc6c" />
                    </mask><symbol viewBox="0 0 150 50" id="app-store">
    <defs>
        <path id="app-store_prefix__a" d="M0 50L150 50 150 0 0 0z" />
    </defs>
    <g fill="none" fill-rule="evenodd">
        <path fill="#FFFFFE" d="M30.827 25.553c-.033-3.568 2.983-5.303 3.121-5.385-1.708-2.439-4.357-2.772-5.287-2.798-2.225-.229-4.38 1.303-5.514 1.303-1.156 0-2.901-1.28-4.78-1.242-2.42.036-4.684 1.408-5.926 3.537-2.562 4.342-.651 10.724 1.803 14.235 1.227 1.719 2.663 3.639 4.54 3.57 1.838-.074 2.524-1.147 4.742-1.147 2.198 0 2.842 1.148 4.757 1.104 1.972-.03 3.214-1.726 4.4-3.461 1.418-1.971 1.987-3.912 2.01-4.01-.046-.016-3.83-1.429-3.866-5.706M27.252 14.454c.864-1.136 1.457-2.682 1.292-4.25-1.252.058-2.818.909-3.72 2.02-.797.98-1.51 2.584-1.325 4.093 1.405.11 2.85-.745 3.753-1.863M48.573 32.326h4.85l-2.39-7.162h-.068l-2.392 7.162zm5.486 2.037h-6.12l-1.47 4.413h-2.591l5.796-16.327h2.693l5.796 16.327h-2.636l-1.468-4.413zM67.103 32.356c0-2.31-1.134-3.83-2.863-3.83-1.7 0-2.842 1.552-2.842 3.83 0 2.3 1.143 3.84 2.842 3.84 1.73 0 2.863-1.509 2.863-3.84m2.285 0c0 3.546-1.802 5.825-4.521 5.825-1.543 0-2.77-.727-3.408-1.997h-.052v5.653h-2.223V26.65h2.152v1.898h.04c.62-1.225 1.937-2.017 3.45-2.017 2.75 0 4.562 2.29 4.562 5.825M79.347 32.356c0-2.31-1.133-3.83-2.863-3.83-1.699 0-2.841 1.552-2.841 3.83 0 2.3 1.142 3.84 2.841 3.84 1.73 0 2.863-1.509 2.863-3.84m2.286 0c0 3.546-1.802 5.825-4.521 5.825-1.544 0-2.77-.727-3.408-1.997h-.052v5.653H71.43V26.65h2.152v1.898h.041c.618-1.225 1.936-2.017 3.45-2.017 2.748 0 4.56 2.29 4.56 5.825M89.997 34.11c.162 1.567 1.571 2.595 3.498 2.595 1.846 0 3.174-1.028 3.174-2.441 0-1.226-.802-1.96-2.697-2.464l-1.897-.494c-2.686-.7-3.934-2.057-3.934-4.258 0-2.726 2.2-4.599 5.323-4.599 3.093 0 5.212 1.873 5.284 4.599h-2.211c-.132-1.578-1.339-2.53-3.103-2.53-1.764 0-2.971.964-2.971 2.365 0 1.118.771 1.775 2.657 2.278l1.612.428c3.002.766 4.248 2.068 4.248 4.38 0 2.955-2.18 4.807-5.648 4.807-3.244 0-5.435-1.808-5.577-4.666h2.242zM103.973 24.49v2.721h2.15v1.87h-2.15v6.339c0 .985.43 1.444 1.375 1.444.237 0 .613-.034.763-.056v1.859c-.257.066-.773.109-1.288.109-2.288 0-3.18-.874-3.18-3.105v-6.59H100v-1.87h1.643V24.49h2.33zM116.118 32.143c0-2.364-1.065-3.76-2.854-3.76-1.788 0-2.852 1.407-2.852 3.76 0 2.373 1.064 3.758 2.852 3.758 1.79 0 2.854-1.385 2.854-3.758m-7.955 0c0-3.447 1.993-5.612 5.101-5.612 3.12 0 5.103 2.165 5.103 5.612 0 3.456-1.973 5.612-5.103 5.612-3.127 0-5.1-2.156-5.1-5.612M121.429 26.647h1.953v1.89h.047c.314-1.257 1.224-2.006 2.4-2.006.294 0 .54.042.702.085v2.132c-.162-.075-.523-.138-.92-.138-1.318 0-2.134.994-2.134 2.556v6.59h-2.048v-11.11zM128.856 31.133h5.584c-.053-1.677-1.147-2.78-2.74-2.78-1.582 0-2.727 1.124-2.844 2.78zm7.75 3.27c-.308 1.987-2.283 3.352-4.81 3.352-3.249 0-5.265-2.135-5.265-5.56 0-3.436 2.027-5.664 5.17-5.664 3.09 0 5.034 2.082 5.034 5.402v.771h-7.89v.136c0 1.874 1.2 3.103 3.005 3.103 1.273 0 2.272-.594 2.58-1.54h2.176zM44.898 14.798c0-2.209 1.219-3.574 3.183-3.574 1.557 0 2.763.973 2.94 2.361h-1.093c-.207-.836-.917-1.374-1.847-1.374-1.269 0-2.062.996-2.062 2.587 0 1.586.793 2.582 2.067 2.582.936 0 1.646-.486 1.842-1.255h1.092c-.196 1.345-1.356 2.242-2.934 2.242-1.964 0-3.188-1.364-3.188-3.569M56.045 15.814c0-1.064-.527-1.687-1.452-1.687-.928 0-1.45.623-1.45 1.687 0 1.074.522 1.692 1.45 1.692.925 0 1.452-.622 1.452-1.692m-4.004 0c0-1.583.973-2.549 2.552-2.549 1.576 0 2.55.966 2.55 2.55 0 1.591-.97 2.552-2.55 2.552-1.583 0-2.552-.96-2.552-2.553M58.163 13.362h1.142v.795h.088c.292-.556.889-.892 1.793-.892 1.34 0 2.08.671 2.08 1.862v3.24h-1.187v-2.992c0-.804-.42-1.204-1.296-1.204-.876 0-1.434.488-1.434 1.268v2.928h-1.186v-5.005zM67.356 13.265c1.113 0 1.84.515 1.936 1.38h-.937c-.09-.36-.445-.59-1-.59-.544 0-.959.257-.959.64 0 .294.25.478.787.6l.823.19c.94.216 1.382.618 1.382 1.34 0 .925-.868 1.542-2.05 1.542-1.178 0-1.945-.527-2.032-1.398h.978c.122.379.486.614 1.076.614.609 0 1.041-.271 1.041-.663 0-.294-.232-.484-.728-.6l-.862-.199c-.941-.221-1.377-.64-1.377-1.371 0-.872.803-1.485 1.922-1.485" />
        
        <path fill="#FFFFFE" d="M71.518 18.367h.869v-5.504h-.869v5.504zm-.09-6.424l1.019-1.739h1.022l-1.14 1.739h-.9zM78.533 15.84c0-1.017-.562-1.669-1.48-1.669-.928 0-1.45.652-1.45 1.669 0 1.018.522 1.67 1.45 1.67.924 0 1.48-.647 1.48-1.67m-3.828 3.128h1.103c.092.37.548.61 1.275.61.899 0 1.43-.399 1.43-1.074v-.98h-.08c-.332.553-.934.858-1.686.858-1.395 0-2.257-1.008-2.257-2.537 0-1.558.872-2.58 2.268-2.58.752 0 1.408.348 1.715.9h.086v-.815h1.033v5.15c0 1.167-.98 1.908-2.524 1.908-1.365 0-2.248-.572-2.363-1.44M85.714 18.27h-1.139v-.795h-.093c-.29.57-.9.892-1.807.892-1.325 0-2.063-.675-2.063-1.852v-3.25h1.183v2.993c0 .808.39 1.195 1.258 1.195.957 0 1.479-.474 1.479-1.26v-2.928h1.182v5.006zM88.886 15.363h2.841c-.025-.771-.563-1.273-1.385-1.273-.82 0-1.394.506-1.456 1.273zm3.905 1.583c-.253.88-1.152 1.421-2.437 1.421-1.612 0-2.599-.965-2.599-2.535 0-1.57 1.008-2.567 2.593-2.567 1.565 0 2.51.934 2.51 2.477v.338h-3.972v.055c.036.86.61 1.407 1.498 1.407.671 0 1.132-.212 1.338-.596h1.069zM93.878 18.367L94.898 18.367 94.898 11.224 93.878 11.224zM100.943 15.814c0-1.064-.526-1.687-1.451-1.687-.929 0-1.45.623-1.45 1.687 0 1.074.521 1.692 1.45 1.692.925 0 1.451-.622 1.451-1.692m-4.004 0c0-1.583.973-2.549 2.553-2.549 1.575 0 2.549.966 2.549 2.55 0 1.591-.969 2.552-2.55 2.552-1.584 0-2.552-.96-2.552-2.553M107.253 15.363h2.842c-.026-.771-.562-1.273-1.385-1.273-.82 0-1.394.506-1.457 1.273zm3.905 1.583c-.253.88-1.15 1.421-2.437 1.421-1.611 0-2.599-.965-2.599-2.535 0-1.57 1.009-2.567 2.594-2.567 1.565 0 2.508.934 2.508 2.477v.338h-3.97v.055c.037.86.609 1.407 1.498 1.407.671 0 1.132-.212 1.337-.596h1.069zM113.265 13.362h1.142v.795h.088c.292-.556.888-.892 1.792-.892 1.341 0 2.08.671 2.08 1.862v3.24h-1.186v-2.992c0-.804-.419-1.204-1.296-1.204-.876 0-1.434.488-1.434 1.268v2.928h-1.186v-5.005zM123.58 15.363h2.84c-.025-.771-.561-1.273-1.384-1.273-.82 0-1.394.506-1.456 1.273zm3.905 1.583c-.253.88-1.152 1.421-2.438 1.421-1.61 0-2.598-.965-2.598-2.535 0-1.57 1.008-2.567 2.594-2.567 1.564 0 2.508.934 2.508 2.477v.338h-3.97v.055c.036.86.608 1.407 1.497 1.407.671 0 1.132-.212 1.337-.596h1.07zM128.571 18.367L129.592 18.367 129.592 11.224 128.571 11.224z" mask="url(#app-store_prefix__b)" />
        <path fill="#FFFFFE" d="M141 0H9C4.05 0 0 4.039 0 8.975v32.05C0 45.961 4.05 50 9 50h132c4.95 0 9-4.039 9-8.975V8.975C150 4.039 145.95 0 141 0m0 .897c4.467 0 8.1 3.624 8.1 8.078v32.05c0 4.454-3.633 8.077-8.1 8.077H9c-4.466 0-8.1-3.623-8.1-8.077V8.975C.9 4.52 4.535.897 9 .897h132" mask="url(#app-store_prefix__b)" />
    </g>
</symbol><mask id="app-store_prefix__b" fill="#fff">
            <use xlink:href="#app-store_prefix__a" />
        </mask><symbol viewBox="0 0 10 15" id="arrow-link">
    <g fill="none" fill-rule="evenodd" stroke-linecap="round">
        <g stroke-width="1.5">
            <g>
                <path d="M152 8L158.5 15 165 8" transform="translate(-233 -907) translate(79 903) rotate(-90 158.5 11.5)" />
            </g>
        </g>
    </g>
</symbol><symbol viewBox="0 0 32 32" id="chat">
    <defs>
        
    </defs>
    <g fill="none" fill-rule="evenodd">
        <g fill="url(#chat_hc8t1yucca)" transform="translate(-1036 -5405)">
            <path d="M1052.292 5407.483c-7.285 0-13.209 5.878-13.209 13.105 0 2.867.934 5.523 2.516 7.684l-1.65 4.867 5.075-1.613c2.085 1.368 4.583 2.167 7.268 2.167 7.28 0 13.206-5.879 13.206-13.105 0-7.227-5.926-13.105-13.206-13.105m0 28.693c-2.755 0-5.344-.704-7.594-1.94L1036 5437l2.835-8.363c-1.43-2.35-2.253-5.104-2.253-8.049 0-8.609 7.033-15.588 15.71-15.588 8.675 0 15.708 6.98 15.708 15.588 0 8.608-7.033 15.588-15.708 15.588z" />
        </g>
    </g>
</symbol><linearGradient id="chat_hc8t1yucca" x1="100%" x2="0%" y1="50%" y2="50%">
            <stop offset="0%" stop-color="#EF434E" />
            <stop offset="100%" stop-color="#111E6C" />
        </linearGradient><symbol viewBox="0 0 119 261" id="circle-gradient">
    <defs>
        <path id="circle-gradient_a" d="M0 0h119v261H0z" />
        
    </defs>
    <g fill="none" fill-rule="evenodd">
        
        <path fill="url(#circle-gradient_b)" d="M119 0v261C52.372 254.713 0 198.6 0 130.507 0 62.4 52.372 6.287 119 0" mask="url(#circle-gradient_c)" />
    </g>
</symbol><linearGradient id="circle-gradient_b" x1="50%" x2="50%" y1="-18.54%" y2="100%">
            <stop offset="0%" stop-color="#EF434E" />
            <stop offset="100%" stop-color="#111E6C" />
        </linearGradient><mask id="circle-gradient_c" fill="#fff">
            <use xlink:href="#circle-gradient_a" />
        </mask><symbol class="path-two-lg show-desktop" viewBox="0 0 1131 4288" id="content-line">
    <defs>
        
    </defs>
    <path id="content-line_word" fill="none" fill-rule="evenodd" stroke="url(#content-line_path-two-lg-line)" stroke-width="4" transform="translate(-236 -820)" d="M239.579 820l-.848 395.848c-.084 39.212 31.636 71.068 70.848 71.152H1294c39.213 0 71 31.788 71 71v217.073c0 39.212-31.787 71-71 71H897.854c-39.212 0-71 31.788-71 71v286.899c0 39.212-31.788 71-71 71H312c-39.212 0-71 31.788-71 71v529.175c0 39.212 31.788 71 71 71h977c39.212 0 71 31.788 71 71v484.548c0 39.212-31.788 71-71 71-.431 0-.862-.004-1.293-.012l-404.636-7.37c-39.206-.713-71.567 30.49-72.281 69.696-.007.379-.01.757-.012 1.136l-1.85 835.698c-.086 39.212 31.631 71.07 70.843 71.157H1293c39.212 0 71 31.788 71 71v492.974c0 39.212-31.788 71-71 71H882.082c-39.212 0-71 31.788-71 71v58.79h0" style="stroke-dasharray: 8895.31, 8895.31; stroke-dashoffset: 8797;" />
</symbol><linearGradient id="content-line_path-two-lg-line" x1="50%" x2="50%" y1="1.119%" y2="99.091%">
            <stop offset="0%" stop-color="#EF434E" />
            <stop offset="15.274%" stop-color="#111E6C" />
            <stop offset="31.517%" stop-color="#EF434E" />
            <stop offset="50.214%" stop-color="#111E6C" />
            <stop offset="69.204%" stop-color="#EF434E" />
            <stop offset="86.647%" stop-color="#111E6C" />
            <stop offset="100%" stop-color="#EF434E" />
        </linearGradient><symbol viewBox="0 0 18 11" id="down-arrow">
    <path fill="none" fill-rule="evenodd" stroke="#EE424E" stroke-linecap="round" stroke-width="1.5" d="M421 56L429 64.615 437 56" opacity=".842" transform="matrix(-1 0 0 1 438 -55)" />
</symbol><symbol viewBox="0 0 168 50" id="google-play">
    <defs>
        <path id="google-play_prefix__a" d="M0 0.107L166.727 0.107 166.727 49 0 49z" />
        <path id="google-play_prefix__c" d="M0 50L167 50 167 1 0 1z" />
    </defs>
    <g fill="none" fill-rule="evenodd" transform="translate(.778)">
        <g transform="translate(0 1)">
            
            <path fill="#FFFFFE" d="M160.552 1.085c2.86 0 5.187 2.302 5.187 5.134v36.67c0 2.83-2.327 5.133-5.187 5.133H6.175c-2.86 0-5.187-2.302-5.187-5.133V6.219c0-2.832 2.327-5.134 5.187-5.134h154.377m0-.978H6.175C2.778.107 0 2.857 0 6.22v36.67c0 3.36 2.778 6.11 6.175 6.11h154.377c3.396 0 6.175-2.75 6.175-6.11V6.219c0-3.362-2.779-6.112-6.175-6.112" mask="url(#google-play_prefix__b)" />
        </g>
        <path fill="#FFFFFE" d="M84.239 27.802c-2.887 0-5.238 2.206-5.238 5.245 0 3.02 2.351 5.245 5.238 5.245 2.885 0 5.237-2.224 5.237-5.245 0-3.04-2.352-5.245-5.237-5.245zm0 8.424c-1.581 0-2.947-1.312-2.947-3.179 0-1.888 1.366-3.18 2.947-3.18 1.58 0 2.944 1.292 2.944 3.18 0 1.867-1.363 3.179-2.944 3.179zm-11.425-8.424c-2.887 0-5.239 2.206-5.239 5.245 0 3.02 2.352 5.245 5.239 5.245 2.884 0 5.236-2.224 5.236-5.245 0-3.04-2.352-5.245-5.236-5.245zm0 8.424c-1.582 0-2.946-1.312-2.946-3.179 0-1.888 1.364-3.18 2.946-3.18 1.58 0 2.944 1.292 2.944 3.18 0 1.867-1.365 3.179-2.944 3.179zm-13.592-6.814v2.224h5.296c-.158 1.252-.572 2.166-1.204 2.801-.773.776-1.979 1.63-4.092 1.63-3.262 0-5.812-2.642-5.812-5.92 0-3.28 2.55-5.92 5.812-5.92 1.759 0 3.043.695 3.992 1.59l1.562-1.571C63.45 22.975 61.693 22 59.222 22 54.756 22 51 25.657 51 30.147s3.756 8.145 8.222 8.145c2.41 0 4.229-.796 5.652-2.285 1.463-1.47 1.917-3.535 1.917-5.205 0-.517-.04-.993-.119-1.39h-7.45zm55.583 1.728c-.435-1.172-1.76-3.338-4.467-3.338-2.688 0-4.92 2.125-4.92 5.245 0 2.94 2.212 5.245 5.176 5.245 2.392 0 3.776-1.47 4.349-2.324l-1.779-1.193c-.592.874-1.403 1.45-2.57 1.45-1.165 0-1.995-.536-2.53-1.589l6.977-2.9-.236-.596zm-7.116 1.748c-.059-2.026 1.561-3.06 2.727-3.06.91 0 1.68.457 1.938 1.113l-4.665 1.947zm-5.67 5.086h2.292V22.556h-2.293v15.418zm-3.757-9h-.079c-.514-.615-1.502-1.172-2.747-1.172-2.61 0-5 2.304-5 5.265 0 2.94 2.39 5.225 5 5.225 1.245 0 2.233-.557 2.747-1.193h.08v.757c0 2.006-1.068 3.079-2.788 3.079-1.403 0-2.273-1.014-2.628-1.868l-1.997.834C91.424 41.293 92.945 43 95.475 43c2.688 0 4.961-1.59 4.961-5.462V28.12h-2.174v.854zm-2.629 7.252c-1.58 0-2.904-1.331-2.904-3.159 0-1.848 1.323-3.2 2.904-3.2 1.562 0 2.786 1.352 2.786 3.2 0 1.828-1.224 3.159-2.786 3.159zm29.91-13.668h-5.484v15.416h2.287v-5.84h3.197c2.537 0 5.032-1.848 5.032-4.789s-2.495-4.787-5.032-4.787zm.06 7.43h-3.257v-5.285h3.256c1.712 0 2.683 1.425 2.683 2.642 0 1.195-.97 2.642-2.683 2.642zm14.147-2.214c-1.658 0-3.376.734-4.085 2.36l2.032.852c.434-.851 1.242-1.13 2.092-1.13 1.183 0 2.387.713 2.406 1.984v.158c-.414-.238-1.301-.595-2.387-.595-2.19 0-4.42 1.21-4.42 3.47 0 2.063 1.796 3.393 3.808 3.393 1.54 0 2.389-.694 2.922-1.508h.077v1.19h2.21v-5.91c0-2.737-2.032-4.264-4.655-4.264zm-.276 8.449c-.751 0-1.796-.376-1.796-1.31 0-1.189 1.3-1.645 2.425-1.645 1.007 0 1.482.219 2.092.515-.177 1.429-1.4 2.44-2.721 2.44zm12.981-8.112l-2.625 6.683h-.077l-2.724-6.683h-2.466l4.084 9.342-2.327 5.197h2.386L155 28.11h-2.545zm-20.618 9.863h2.289V22.558h-2.289v15.416zM51 17v-7h2.257c1.134 0 2.042.325 2.723.973.68.649 1.02 1.49 1.02 2.527 0 1.037-.34 1.88-1.02 2.527-.68.65-1.589.973-2.723.973H51zm.948-.86h1.309c.852 0 1.528-.231 2.027-.695.498-.462.746-1.11.746-1.945 0-.827-.248-1.474-.746-1.94-.499-.465-1.175-.7-2.027-.7h-1.31v5.28zM63.556 17c-.532 0-1.05-.158-1.558-.477-.509-.318-.843-.764-.998-1.34l.859-.316c.102.367.311.678.628.93.318.253.673.38 1.069.38.409 0 .76-.098 1.048-.295.29-.196.435-.464.435-.801 0-.374-.145-.662-.435-.865-.289-.202-.748-.391-1.375-.566-.648-.187-1.138-.43-1.473-.725-.333-.297-.501-.676-.501-1.138 0-.48.209-.898.625-1.253.415-.355.957-.534 1.625-.534.621 0 1.125.142 1.512.426.39.284.642.594.757.931l-.857.327c-.063-.21-.214-.408-.456-.59-.242-.18-.554-.27-.936-.27-.361 0-.67.092-.925.276-.256.184-.384.413-.384.687 0 .25.119.46.353.632.236.172.582.326 1.038.463.361.107.663.21.906.31.242.099.488.232.735.398.249.165.436.37.563.617.125.247.189.531.189.857 0 .323-.073.614-.22.87-.146.255-.341.459-.583.608-.242.15-.502.264-.782.34-.28.079-.566.118-.86.118M67.983 17H67v-7h2.607c.648 0 1.21.197 1.683.591.474.395.71.892.71 1.491 0 .6-.236 1.097-.71 1.49-.473.396-1.035.593-1.683.593h-1.624V17zm0-3.696h1.646c.413 0 .745-.126.993-.38.25-.255.373-.535.373-.842 0-.306-.123-.587-.373-.84-.248-.255-.58-.382-.993-.382h-1.646v2.444zM78.996 15.984C78.326 16.662 77.495 17 76.5 17c-.995 0-1.827-.338-2.496-1.016C73.334 15.307 73 14.48 73 13.5c0-.98.334-1.808 1.003-2.485.669-.677 1.5-1.016 2.496-1.016.99 0 1.82.34 2.493 1.02.671.68 1.008 1.507 1.008 2.48 0 .98-.335 1.807-1.004 2.484m-4.347-.56c.504.502 1.12.752 1.85.752.729 0 1.346-.25 1.85-.753.504-.502.757-1.143.757-1.922 0-.78-.253-1.422-.757-1.923-.504-.502-1.121-.754-1.85-.754-.73 0-1.346.252-1.85.754-.503.501-.756 1.144-.756 1.923 0 .78.253 1.42.756 1.922M82 17L82 10 83.014 10 86.166 15.445 86.203 15.445 86.166 14.096 86.166 10 87 10 87 17 86.13 17 82.834 11.29 82.797 11.29 82.834 12.64 82.834 17zM92 17v-7h2.642c.573 0 1.067.181 1.485.542.42.363.628.817.628 1.364 0 .333-.09.627-.27.881-.18.254-.421.446-.72.577v.038c.36.118.656.32.889.606.23.287.346.62.346.998 0 .574-.22 1.049-.658 1.427-.439.378-.958.567-1.556.567H92zm.939-3.998h1.703c.354 0 .64-.112.854-.338.213-.224.32-.47.32-.738 0-.267-.103-.512-.311-.732-.208-.222-.48-.333-.82-.333h-1.746V13zm0 3.138h1.888c.36 0 .653-.121.877-.363.225-.24.337-.504.337-.79 0-.288-.115-.55-.347-.788-.231-.238-.534-.357-.908-.357h-1.847v2.298zM98 17L98 10 98.914 10 98.914 16.14 102 16.14 102 17zM107 10.86L103.88 10.86 103.88 13.079 106.693 13.079 106.693 13.92 103.88 13.92 103.88 16.139 107 16.139 107 17 103 17 103 10 107 10zM116 10.86L112.88 10.86 112.88 13.079 115.693 13.079 115.693 13.92 112.88 13.92 112.88 16.139 116 16.139 116 17 112 17 112 10 116 10zM118 17L118 10 119.013 10 122.166 15.445 122.203 15.445 122.166 14.096 122.166 10 123 10 123 17 122.13 17 118.832 11.29 118.796 11.29 118.832 12.64 118.832 17z" />
        <path fill="#FFFFFE" d="M51 17v-7h2.257c1.134 0 2.042.325 2.723.973.68.649 1.02 1.49 1.02 2.527 0 1.037-.34 1.88-1.02 2.527-.68.65-1.589.973-2.723.973H51zm.948-.86h1.309c.852 0 1.528-.231 2.027-.695.498-.462.746-1.11.746-1.945 0-.827-.248-1.474-.746-1.94-.499-.465-1.175-.7-2.027-.7h-1.31v5.28z" />
        
        <path fill="#FFFFFE" d="M58 17L59 17 59 10 58 10zM63.556 17c-.532 0-1.05-.158-1.558-.477-.509-.318-.843-.764-.998-1.34l.859-.316c.102.367.311.678.628.93.318.253.673.38 1.069.38.409 0 .76-.098 1.048-.295.29-.196.435-.464.435-.801 0-.374-.145-.662-.435-.865-.289-.202-.748-.391-1.375-.566-.648-.187-1.138-.43-1.473-.725-.333-.297-.501-.676-.501-1.138 0-.48.209-.898.625-1.253.415-.355.957-.534 1.625-.534.621 0 1.125.142 1.512.426.39.284.642.594.757.931l-.857.327c-.063-.21-.214-.408-.456-.59-.242-.18-.554-.27-.936-.27-.361 0-.67.092-.925.276-.256.184-.384.413-.384.687 0 .25.119.46.353.632.236.172.582.326 1.038.463.361.107.663.21.906.31.242.099.488.232.735.398.249.165.436.37.563.617.125.247.189.531.189.857 0 .323-.073.614-.22.87-.146.255-.341.459-.583.608-.242.15-.502.264-.782.34-.28.079-.566.118-.86.118M67.983 17H67v-7h2.607c.648 0 1.21.197 1.683.591.474.395.71.892.71 1.491 0 .6-.236 1.097-.71 1.49-.473.396-1.035.593-1.683.593h-1.624V17zm0-3.696h1.646c.413 0 .745-.126.993-.38.25-.255.373-.535.373-.842 0-.306-.123-.587-.373-.84-.248-.255-.58-.382-.993-.382h-1.646v2.444zM78.996 15.984C78.326 16.662 77.495 17 76.5 17c-.995 0-1.827-.338-2.496-1.016C73.334 15.307 73 14.48 73 13.5c0-.98.334-1.808 1.003-2.485.669-.677 1.5-1.016 2.496-1.016.99 0 1.82.34 2.493 1.02.671.68 1.008 1.507 1.008 2.48 0 .98-.335 1.807-1.004 2.484m-4.347-.56c.504.502 1.12.752 1.85.752.729 0 1.346-.25 1.85-.753.504-.502.757-1.143.757-1.922 0-.78-.253-1.422-.757-1.923-.504-.502-1.121-.754-1.85-.754-.73 0-1.346.252-1.85.754-.503.501-.756 1.144-.756 1.923 0 .78.253 1.42.756 1.922M82 17L82 10 83.014 10 86.166 15.445 86.203 15.445 86.166 14.096 86.166 10 87 10 87 17 86.13 17 82.834 11.29 82.797 11.29 82.834 12.64 82.834 17zM89 17L90 17 90 10 89 10zM92 17v-7h2.642c.573 0 1.067.181 1.485.542.42.363.628.817.628 1.364 0 .333-.09.627-.27.881-.18.254-.421.446-.72.577v.038c.36.118.656.32.889.606.23.287.346.62.346.998 0 .574-.22 1.049-.658 1.427-.439.378-.958.567-1.556.567H92zm.939-3.998h1.703c.354 0 .64-.112.854-.338.213-.224.32-.47.32-.738 0-.267-.103-.512-.311-.732-.208-.222-.48-.333-.82-.333h-1.746V13zm0 3.138h1.888c.36 0 .653-.121.877-.363.225-.24.337-.504.337-.79 0-.288-.115-.55-.347-.788-.231-.238-.534-.357-.908-.357h-1.847v2.298zM98 17L98 10 98.914 10 98.914 16.14 102 16.14 102 17zM107 10.86L103.88 10.86 103.88 13.079 106.693 13.079 106.693 13.92 103.88 13.92 103.88 16.139 107 16.139 107 17 103 17 103 10 107 10zM116 10.86L112.88 10.86 112.88 13.079 115.693 13.079 115.693 13.92 112.88 13.92 112.88 16.139 116 16.139 116 17 112 17 112 10 116 10zM118 17L118 10 119.013 10 122.166 15.445 122.203 15.445 122.166 14.096 122.166 10 123 10 123 17 122.13 17 118.832 11.29 118.796 11.29 118.832 12.64 118.832 17zM12.572 10.09c-.36.381-.572.972-.572 1.737v27.347c0 .767.213 1.356.572 1.736l.092.09L28 25.681v-.362L12.664 10l-.092.09zM28 24.827V25.17L33.281 30l.12-.062 6.26-3.25c1.786-.93 1.786-2.448 0-3.376l-6.26-3.25-.119-.062L28 24.827z" mask="url(#google-play_prefix__d)" />
        <path fill="#FFFFFE" d="M12 40.506c.58.605 1.538.681 2.617.078L33 30.255 27.686 25 12 40.506zM12 9.495L27.686 25 33 19.745 14.617 9.419C14.11 9.134 13.63 9 13.206 9c-.484 0-.898.173-1.206.495" mask="url(#google-play_prefix__d)" />
        <path stroke="#2F2A6A" d="M33 20L12 41M12 10L33 31" mask="url(#google-play_prefix__d)" />
    </g>
</symbol><mask id="google-play_prefix__b" fill="#fff">
                <use xlink:href="#google-play_prefix__a" />
            </mask><mask id="google-play_prefix__d" fill="#fff">
            <use xlink:href="#google-play_prefix__c" />
        </mask><symbol viewBox="0 0 23.625 23.625" id="info-icon">
<g>
	<path style="fill:#111e6c;" d="M11.812,0C5.289,0,0,5.289,0,11.812s5.289,11.813,11.812,11.813s11.813-5.29,11.813-11.813
		S18.335,0,11.812,0z M14.271,18.307c-0.608,0.24-1.092,0.422-1.455,0.548c-0.362,0.126-0.783,0.189-1.262,0.189
		c-0.736,0-1.309-0.18-1.717-0.539s-0.611-0.814-0.611-1.367c0-0.215,0.015-0.435,0.045-0.659c0.031-0.224,0.08-0.476,0.147-0.759
		l0.761-2.688c0.067-0.258,0.125-0.503,0.171-0.731c0.046-0.23,0.068-0.441,0.068-0.633c0-0.342-0.071-0.582-0.212-0.717
		c-0.143-0.135-0.412-0.201-0.813-0.201c-0.196,0-0.398,0.029-0.605,0.09c-0.205,0.063-0.383,0.12-0.529,0.176l0.201-0.828
		c0.498-0.203,0.975-0.377,1.43-0.521c0.455-0.146,0.885-0.218,1.29-0.218c0.731,0,1.295,0.178,1.692,0.53
		c0.395,0.353,0.594,0.812,0.594,1.376c0,0.117-0.014,0.323-0.041,0.617c-0.027,0.295-0.078,0.564-0.152,0.811l-0.757,2.68
		c-0.062,0.215-0.117,0.461-0.167,0.736c-0.049,0.275-0.073,0.485-0.073,0.626c0,0.356,0.079,0.599,0.239,0.728
		c0.158,0.129,0.435,0.194,0.827,0.194c0.185,0,0.392-0.033,0.626-0.097c0.232-0.064,0.4-0.121,0.506-0.17L14.271,18.307z
		 M14.137,7.429c-0.353,0.328-0.778,0.492-1.275,0.492c-0.496,0-0.924-0.164-1.28-0.492c-0.354-0.328-0.533-0.727-0.533-1.193
		c0-0.465,0.18-0.865,0.533-1.196c0.356-0.332,0.784-0.497,1.28-0.497c0.497,0,0.923,0.165,1.275,0.497
		c0.353,0.331,0.53,0.731,0.53,1.196C14.667,6.703,14.49,7.101,14.137,7.429z" />
</g>
<g>
</g>
<g>
</g>
<g>
</g>
<g>
</g>
<g>
</g>
<g>
</g>
<g>
</g>
<g>
</g>
<g>
</g>
<g>
</g>
<g>
</g>
<g>
</g>
<g>
</g>
<g>
</g>
<g>
</g>
</symbol><symbol viewBox="0 0 114 40" id="logo-blue">
    <defs>
        <path id="logo-blue_a" d="M.001 0h113.72v39.822H.002z" />
    </defs>
    <g fill-rule="evenodd">
        
        <path d="M34.318 27.013c.678 7.174 6.733 12.81 14.081 12.81 7.352 0 13.407-5.636 14.085-12.81H34.318zm14.081-15.48c-7.348 0-13.403 5.637-14.081 12.811h28.166c-.678-7.174-6.733-12.811-14.085-12.811zm19.884 28.29h11.472V0H68.283v39.823zm33.968 0h11.472V0H102.25v39.823zM0 39.823h11.472V0H.001v39.823zm14.224-.064V11.597c7.173.678 12.808 6.733 12.808 14.08 0 7.349-5.635 13.403-12.808 14.082zm85.354-28.162v28.162c-7.172-.679-12.808-6.733-12.808-14.08 0-7.35 5.636-13.404 12.808-14.082z" mask="url(#logo-blue_b)" />
    </g>
</symbol><mask id="logo-blue_b" fill="#fff">
            <use xlink:href="#logo-blue_a" />
        </mask><symbol viewBox="0 0 40 28" id="mail-gradient-icon">
    <defs>
        
        <path id="mail-gradient-icon_prefix__a" d="M0 0.071L39.79 0.071 39.79 26.47 0 26.47z" />
    </defs>
    <g fill="none" fill-rule="evenodd">
        <path fill="#111E6C" d="M.238 26.046c-.372-.485-.3-1.195.16-1.586l12.74-10.811c.46-.391 1.136-.316 1.508.17.372.484.3 1.194-.161 1.586l-12.74 10.81c-.198.168-.436.25-.672.25-.313 0-.623-.143-.835-.42z" />
        <path fill="#EF434E" d="M38.248 26.17L26.39 14.459c-.429-.424-.462-1.148-.073-1.617.388-.469 1.051-.505 1.48-.08l11.857 11.71c.43.424.463 1.148.074 1.617-.207.25-.492.376-.778.376-.251 0-.503-.097-.703-.295z" />
        <g transform="translate(0 .332)">
            
            <path fill="url(#mail-gradient-icon_prefix__b)" d="M19.895 15.172L2.25 5.591C2.552 3.748 4.1 2.34 5.966 2.34h31.631v3.22l-17.702 9.612zm19.895 5.28V.07H5.966C2.71.07.06 2.785.005 6.142l-.001.026c0 .026-.004.051-.004.077V26.47h38.693c.606 0 1.097-.508 1.097-1.135 0-.626-.491-1.134-1.097-1.134h-36.5V8.12l17.702 9.613 17.702-9.612v12.33h2.193z" mask="url(#mail-gradient-icon_prefix__c)" />
        </g>
    </g>
</symbol><linearGradient id="mail-gradient-icon_prefix__b" x1="100%" x2="0%" y1="50%" y2="50%">
            <stop offset="0%" stop-color="#EF434E" />
            <stop offset="100%" stop-color="#111E6C" />
        </linearGradient><mask id="mail-gradient-icon_prefix__c" fill="#fff">
                <use xlink:href="#mail-gradient-icon_prefix__a" />
            </mask><symbol viewBox="0 0 294 1162" id="path-section-products-sm-a11701d21d">
    <defs>
        
    </defs>
    <g fill="none" fill-rule="evenodd" stroke-linecap="round">
        <g stroke="url(#path-section-products-sm-a11701d21d_mwmdxtldea)" stroke-width="3" transform="translate(-14 -588)">
            <path d="M160 590v175c0 11.046-8.954 20-20 20H66c-27.614 0-50 22.386-50 50v284.25c0 27.614 22.386 50 50 50h190c27.614 0 50 22.386 50 50v479.25c0 27.614-22.386 50-50 50H134.692h0" />
        </g>
    </g>
</symbol><linearGradient id="path-section-products-sm-a11701d21d_mwmdxtldea" x1="47.262%" x2="50%" y1="94.598%" y2="0%">
            <stop offset=".071%" stop-color="#EE424E" />
            <stop offset="50.044%" stop-color="#121E6C" />
            <stop offset="100%" stop-color="#EE424E" />
        </linearGradient><symbol viewBox="0 0 34 34" id="play-icon">
    <g fill="none" fill-rule="evenodd" transform="translate(2 2)">
        <circle cx="15" cy="15" r="15" stroke="#FFF" stroke-width="3" />
        <path fill="#FFF" d="M19.927 15.86l-9.041 5.368c-.475.282-1.089.126-1.37-.35-.093-.154-.141-.33-.141-.51V9.632c0-.553.448-1 1-1 .18 0 .356.048.51.14l9.042 5.368c.475.282.631.896.35 1.37-.086.144-.206.264-.35.35z" />
    </g>
</symbol><symbol viewBox="0 0 28 28" id="whats-app-gradient-icon">
    <defs>
        
    </defs>
    <path fill="url(#whats-app-gradient-icon_prefix__a)" fill-rule="evenodd" d="M166.55 4549.39c-.337-.166-1.994-.976-2.303-1.086-.308-.112-.534-.168-.758.167-.224.334-.87 1.087-1.067 1.31-.197.224-.393.251-.73.084-.337-.167-1.423-.521-2.71-1.659-1-.887-1.677-1.98-1.875-2.315-.195-.334-.02-.515.148-.682.152-.15.337-.39.506-.585.168-.196.224-.336.337-.559.112-.223.056-.418-.029-.585-.084-.167-.758-1.812-1.039-2.482-.279-.668-.56-.643-.758-.643-.196 0-.56.058-.56.058s-.675.084-.983.418c-.309.334-1.18 1.144-1.18 2.788 0 1.645 1.207 3.235 1.376 3.457.168.224 2.33 3.71 5.756 5.048 3.425 1.338 3.425.892 4.043.835.617-.054 1.993-.808 2.274-1.589.281-.78.281-1.45.198-1.589-.085-.14-.31-.223-.646-.39zm-6.295-14.218c-6.374 0-11.557 5.144-11.557 11.468 0 2.508.817 4.832 2.201 6.723l-1.443 4.258 4.44-1.41c1.825 1.197 4.01 1.895 6.36 1.895 6.37 0 11.555-5.144 11.555-11.466 0-6.324-5.185-11.468-11.556-11.468m0 25.107c-2.41 0-4.676-.616-6.644-1.698L146 4561l2.48-7.317c-1.251-2.056-1.97-4.467-1.97-7.043 0-7.533 6.153-13.64 13.745-13.64 7.591 0 13.745 6.107 13.745 13.64 0 7.532-6.154 13.639-13.745 13.639z" transform="translate(-146 -4533)" />
</symbol><linearGradient id="whats-app-gradient-icon_prefix__a" x1="100%" x2="0%" y1="50%" y2="50%">
            <stop offset="0%" stop-color="#EF434E" />
            <stop offset="100%" stop-color="#111E6C" />
        </linearGradient><symbol viewBox="0 0 32 32" id="whats-app-icon">
    <path fill="#21B859" fill-rule="evenodd" d="M23.16 18.92c-.38-.192-2.25-1.126-2.597-1.254-.348-.129-.604-.193-.855.192-.254.386-.982 1.255-1.205 1.512-.221.259-.442.29-.822.097-.381-.193-1.606-.601-3.057-1.914-1.13-1.023-1.892-2.284-2.115-2.67-.22-.386-.022-.594.166-.787.172-.174.38-.45.57-.674.191-.227.254-.388.381-.646.127-.257.064-.481-.032-.674-.095-.193-.855-2.09-1.172-2.864-.315-.77-.632-.742-.855-.742-.221 0-.632.067-.632.067s-.761.097-1.11.483c-.347.385-1.33 1.319-1.33 3.215 0 1.898 1.362 3.733 1.552 3.988.19.258 2.628 4.28 6.492 5.824 3.864 1.543 3.864 1.029 4.561.964.696-.063 2.248-.933 2.566-1.833.317-.901.317-1.674.222-1.834-.095-.16-.35-.257-.728-.45zM16.22 2.317c-7.241 0-13.13 5.89-13.13 13.13 0 2.873.928 5.534 2.5 7.7l-1.64 4.875 5.046-1.615c2.073 1.37 4.556 2.17 7.224 2.17 7.239 0 13.13-5.89 13.13-13.13 0-7.24-5.891-13.13-13.13-13.13m-.098 28.534c-2.726 0-5.288-.697-7.515-1.92L0 31.667l2.806-8.276C1.39 21.066.576 18.34.576 15.426.576 6.906 7.536 0 16.122 0c8.585 0 15.545 6.906 15.545 15.426 0 8.518-6.96 15.425-15.545 15.425z" />
</symbol></defs></svg>