<svg xmlns="http://www.w3.org/2000/svg" width="28" height="28" viewBox="0 0 28 28">
    <defs>
        <linearGradient id="prefix__a" x1="100%" x2="0%" y1="50%" y2="50%">
            <stop offset="0%" stop-color="#EF434E"/>
            <stop offset="100%" stop-color="#111E6C"/>
        </linearGradient>
    </defs>
    <path fill="url(#prefix__a)" fill-rule="evenodd" d="M166.55 4549.39c-.337-.166-1.994-.976-2.303-1.086-.308-.112-.534-.168-.758.167-.224.334-.87 1.087-1.067 1.31-.197.224-.393.251-.73.084-.337-.167-1.423-.521-2.71-1.659-1-.887-1.677-1.98-1.875-2.315-.195-.334-.02-.515.148-.682.152-.15.337-.39.506-.585.168-.196.224-.336.337-.559.112-.223.056-.418-.029-.585-.084-.167-.758-1.812-1.039-2.482-.279-.668-.56-.643-.758-.643-.196 0-.56.058-.56.058s-.675.084-.983.418c-.309.334-1.18 1.144-1.18 2.788 0 1.645 1.207 3.235 1.376 3.457.168.224 2.33 3.71 5.756 5.048 3.425 1.338 3.425.892 4.043.835.617-.054 1.993-.808 2.274-1.589.281-.78.281-1.45.198-1.589-.085-.14-.31-.223-.646-.39zm-6.295-14.218c-6.374 0-11.557 5.144-11.557 11.468 0 2.508.817 4.832 2.201 6.723l-1.443 4.258 4.44-1.41c1.825 1.197 4.01 1.895 6.36 1.895 6.37 0 11.555-5.144 11.555-11.466 0-6.324-5.185-11.468-11.556-11.468m0 25.107c-2.41 0-4.676-.616-6.644-1.698L146 4561l2.48-7.317c-1.251-2.056-1.97-4.467-1.97-7.043 0-7.533 6.153-13.64 13.745-13.64 7.591 0 13.745 6.107 13.745 13.64 0 7.532-6.154 13.639-13.745 13.639z" transform="translate(-146 -4533)"/>
</svg>
